<mxfile host="65bd71144e">
    <diagram id="f4cDoAkVqmNpe1YxjZdH" name="Page-1">
        <mxGraphModel dx="768" dy="489" grid="0" gridSize="10" guides="1" tooltips="1" connect="1" arrows="1" fold="1" page="0" pageScale="1" pageWidth="850" pageHeight="1100" background="none" math="0" shadow="0">
            <root>
                <mxCell id="0"/>
                <mxCell id="1" parent="0"/>
                <mxCell id="612" value="A" style="ellipse;whiteSpace=wrap;html=1;aspect=fixed;fillStyle=auto;rounded=1;" vertex="1" parent="1">
                    <mxGeometry x="669.76" y="370" width="30" height="30" as="geometry"/>
                </mxCell>
                <mxCell id="613" value="B" style="ellipse;whiteSpace=wrap;html=1;aspect=fixed;fillStyle=auto;rounded=1;" vertex="1" parent="1">
                    <mxGeometry x="709.76" y="370" width="30" height="30" as="geometry"/>
                </mxCell>
                <mxCell id="614" value="C" style="ellipse;whiteSpace=wrap;html=1;aspect=fixed;fillStyle=auto;rounded=1;" vertex="1" parent="1">
                    <mxGeometry x="749.76" y="370" width="30" height="30" as="geometry"/>
                </mxCell>
                <mxCell id="615" value="D" style="ellipse;whiteSpace=wrap;html=1;aspect=fixed;fillStyle=auto;rounded=1;" vertex="1" parent="1">
                    <mxGeometry x="789.76" y="370" width="30" height="30" as="geometry"/>
                </mxCell>
                <mxCell id="616" value="E" style="ellipse;whiteSpace=wrap;html=1;aspect=fixed;fillStyle=auto;rounded=1;" vertex="1" parent="1">
                    <mxGeometry x="829.76" y="370" width="30" height="30" as="geometry"/>
                </mxCell>
                <mxCell id="617" value="F" style="ellipse;whiteSpace=wrap;html=1;aspect=fixed;fillStyle=auto;rounded=1;" vertex="1" parent="1">
                    <mxGeometry x="869.76" y="370" width="30" height="30" as="geometry"/>
                </mxCell>
                <mxCell id="618" value="G" style="ellipse;whiteSpace=wrap;html=1;aspect=fixed;fillStyle=auto;rounded=1;" vertex="1" parent="1">
                    <mxGeometry x="909.76" y="370" width="30" height="30" as="geometry"/>
                </mxCell>
                <mxCell id="619" value="H" style="ellipse;whiteSpace=wrap;html=1;aspect=fixed;fillStyle=auto;rounded=1;" vertex="1" parent="1">
                    <mxGeometry x="949.76" y="370" width="30" height="30" as="geometry"/>
                </mxCell>
                <mxCell id="620" value="I" style="ellipse;whiteSpace=wrap;html=1;aspect=fixed;fillStyle=auto;rounded=1;" vertex="1" parent="1">
                    <mxGeometry x="989.76" y="370" width="30" height="30" as="geometry"/>
                </mxCell>
                <mxCell id="621" value="K" style="ellipse;whiteSpace=wrap;html=1;aspect=fixed;fillStyle=auto;rounded=1;" vertex="1" parent="1">
                    <mxGeometry x="669.76" y="480" width="30" height="30" as="geometry"/>
                </mxCell>
                <mxCell id="622" value="L" style="ellipse;whiteSpace=wrap;html=1;aspect=fixed;fillStyle=auto;rounded=1;" vertex="1" parent="1">
                    <mxGeometry x="709.76" y="480" width="30" height="30" as="geometry"/>
                </mxCell>
                <mxCell id="623" value="M" style="ellipse;whiteSpace=wrap;html=1;aspect=fixed;fillStyle=auto;rounded=1;" vertex="1" parent="1">
                    <mxGeometry x="749.76" y="480" width="30" height="30" as="geometry"/>
                </mxCell>
                <mxCell id="624" value="N" style="ellipse;whiteSpace=wrap;html=1;aspect=fixed;fillStyle=auto;rounded=1;" vertex="1" parent="1">
                    <mxGeometry x="789.76" y="480" width="30" height="30" as="geometry"/>
                </mxCell>
                <mxCell id="625" value="O" style="ellipse;whiteSpace=wrap;html=1;aspect=fixed;fillStyle=auto;rounded=1;" vertex="1" parent="1">
                    <mxGeometry x="829.76" y="480" width="30" height="30" as="geometry"/>
                </mxCell>
                <mxCell id="626" value="P" style="ellipse;whiteSpace=wrap;html=1;aspect=fixed;fillStyle=auto;rounded=1;" vertex="1" parent="1">
                    <mxGeometry x="869.76" y="480" width="30" height="30" as="geometry"/>
                </mxCell>
                <mxCell id="627" value="Q" style="ellipse;whiteSpace=wrap;html=1;aspect=fixed;fillStyle=auto;rounded=1;" vertex="1" parent="1">
                    <mxGeometry x="909.76" y="480" width="30" height="30" as="geometry"/>
                </mxCell>
                <mxCell id="628" value="R" style="ellipse;whiteSpace=wrap;html=1;aspect=fixed;fillStyle=auto;rounded=1;" vertex="1" parent="1">
                    <mxGeometry x="949.76" y="480" width="30" height="30" as="geometry"/>
                </mxCell>
                <mxCell id="629" value="S" style="ellipse;whiteSpace=wrap;html=1;aspect=fixed;fillStyle=auto;rounded=1;" vertex="1" parent="1">
                    <mxGeometry x="989.76" y="480" width="30" height="30" as="geometry"/>
                </mxCell>
                <mxCell id="630" value="U" style="ellipse;whiteSpace=wrap;html=1;aspect=fixed;fillStyle=auto;rounded=1;" vertex="1" parent="1">
                    <mxGeometry x="659.76" y="620" width="30" height="30" as="geometry"/>
                </mxCell>
                <mxCell id="631" value="V" style="ellipse;whiteSpace=wrap;html=1;aspect=fixed;fillStyle=auto;rounded=1;" vertex="1" parent="1">
                    <mxGeometry x="699.76" y="620" width="30" height="30" as="geometry"/>
                </mxCell>
                <mxCell id="632" value="W" style="ellipse;whiteSpace=wrap;html=1;aspect=fixed;fillStyle=auto;rounded=1;" vertex="1" parent="1">
                    <mxGeometry x="739.76" y="620" width="30" height="30" as="geometry"/>
                </mxCell>
                <mxCell id="633" value="X" style="ellipse;whiteSpace=wrap;html=1;aspect=fixed;fillStyle=auto;rounded=1;" vertex="1" parent="1">
                    <mxGeometry x="779.76" y="620" width="30" height="30" as="geometry"/>
                </mxCell>
                <mxCell id="634" value="Y" style="ellipse;whiteSpace=wrap;html=1;aspect=fixed;fillStyle=auto;rounded=1;" vertex="1" parent="1">
                    <mxGeometry x="819.76" y="620" width="30" height="30" as="geometry"/>
                </mxCell>
                <mxCell id="635" value="Z" style="ellipse;whiteSpace=wrap;html=1;aspect=fixed;fillStyle=auto;rounded=1;" vertex="1" parent="1">
                    <mxGeometry x="859.76" y="620" width="30" height="30" as="geometry"/>
                </mxCell>
                <mxCell id="636" value="a" style="ellipse;whiteSpace=wrap;html=1;aspect=fixed;fillStyle=auto;rounded=1;" vertex="1" parent="1">
                    <mxGeometry x="899.76" y="620" width="30" height="30" as="geometry"/>
                </mxCell>
                <mxCell id="637" value="b" style="ellipse;whiteSpace=wrap;html=1;aspect=fixed;fillStyle=auto;rounded=1;" vertex="1" parent="1">
                    <mxGeometry x="939.76" y="620" width="30" height="30" as="geometry"/>
                </mxCell>
                <mxCell id="638" value="c" style="ellipse;whiteSpace=wrap;html=1;aspect=fixed;fillStyle=auto;rounded=1;" vertex="1" parent="1">
                    <mxGeometry x="979.76" y="620" width="30" height="30" as="geometry"/>
                </mxCell>
                <mxCell id="639" value="e" style="ellipse;whiteSpace=wrap;html=1;aspect=fixed;fillStyle=auto;rounded=1;" vertex="1" parent="1">
                    <mxGeometry x="659.76" y="750" width="30" height="30" as="geometry"/>
                </mxCell>
                <mxCell id="640" value="f" style="ellipse;whiteSpace=wrap;html=1;aspect=fixed;fillStyle=auto;rounded=1;" vertex="1" parent="1">
                    <mxGeometry x="699.76" y="750" width="30" height="30" as="geometry"/>
                </mxCell>
                <mxCell id="641" value="g" style="ellipse;whiteSpace=wrap;html=1;aspect=fixed;fillStyle=auto;rounded=1;" vertex="1" parent="1">
                    <mxGeometry x="739.76" y="750" width="30" height="30" as="geometry"/>
                </mxCell>
                <mxCell id="642" value="h" style="ellipse;whiteSpace=wrap;html=1;aspect=fixed;fillStyle=auto;rounded=1;" vertex="1" parent="1">
                    <mxGeometry x="779.76" y="750" width="30" height="30" as="geometry"/>
                </mxCell>
                <mxCell id="643" value="i" style="ellipse;whiteSpace=wrap;html=1;aspect=fixed;fillStyle=auto;rounded=1;" vertex="1" parent="1">
                    <mxGeometry x="819.76" y="750" width="30" height="30" as="geometry"/>
                </mxCell>
                <mxCell id="644" value="j" style="ellipse;whiteSpace=wrap;html=1;aspect=fixed;fillStyle=auto;rounded=1;" vertex="1" parent="1">
                    <mxGeometry x="859.76" y="750" width="30" height="30" as="geometry"/>
                </mxCell>
                <mxCell id="645" value="k" style="ellipse;whiteSpace=wrap;html=1;aspect=fixed;fillStyle=auto;rounded=1;" vertex="1" parent="1">
                    <mxGeometry x="899.76" y="750" width="30" height="30" as="geometry"/>
                </mxCell>
                <mxCell id="646" value="l" style="ellipse;whiteSpace=wrap;html=1;aspect=fixed;fillStyle=auto;rounded=1;" vertex="1" parent="1">
                    <mxGeometry x="939.76" y="750" width="30" height="30" as="geometry"/>
                </mxCell>
                <mxCell id="647" value="m" style="ellipse;whiteSpace=wrap;html=1;aspect=fixed;fillStyle=auto;rounded=1;" vertex="1" parent="1">
                    <mxGeometry x="979.76" y="750" width="30" height="30" as="geometry"/>
                </mxCell>
                <mxCell id="648" value="o" style="ellipse;whiteSpace=wrap;html=1;aspect=fixed;fillStyle=auto;rounded=1;" vertex="1" parent="1">
                    <mxGeometry x="659.76" y="900" width="30" height="30" as="geometry"/>
                </mxCell>
                <mxCell id="649" value="p" style="ellipse;whiteSpace=wrap;html=1;aspect=fixed;fillStyle=auto;rounded=1;" vertex="1" parent="1">
                    <mxGeometry x="699.76" y="900" width="30" height="30" as="geometry"/>
                </mxCell>
                <mxCell id="650" value="q" style="ellipse;whiteSpace=wrap;html=1;aspect=fixed;fillStyle=auto;rounded=1;" vertex="1" parent="1">
                    <mxGeometry x="739.76" y="900" width="30" height="30" as="geometry"/>
                </mxCell>
                <mxCell id="651" value="r" style="ellipse;whiteSpace=wrap;html=1;aspect=fixed;fillStyle=auto;rounded=1;" vertex="1" parent="1">
                    <mxGeometry x="779.76" y="900" width="30" height="30" as="geometry"/>
                </mxCell>
                <mxCell id="652" value="s" style="ellipse;whiteSpace=wrap;html=1;aspect=fixed;fillStyle=auto;rounded=1;" vertex="1" parent="1">
                    <mxGeometry x="819.76" y="900" width="30" height="30" as="geometry"/>
                </mxCell>
                <mxCell id="653" value="t" style="ellipse;whiteSpace=wrap;html=1;aspect=fixed;fillStyle=auto;rounded=1;" vertex="1" parent="1">
                    <mxGeometry x="859.76" y="900" width="30" height="30" as="geometry"/>
                </mxCell>
                <mxCell id="654" value="u" style="ellipse;whiteSpace=wrap;html=1;aspect=fixed;fillStyle=auto;rounded=1;" vertex="1" parent="1">
                    <mxGeometry x="899.76" y="900" width="30" height="30" as="geometry"/>
                </mxCell>
                <mxCell id="655" value="v" style="ellipse;whiteSpace=wrap;html=1;aspect=fixed;fillStyle=auto;rounded=1;" vertex="1" parent="1">
                    <mxGeometry x="939.76" y="900" width="30" height="30" as="geometry"/>
                </mxCell>
                <mxCell id="656" value="w" style="ellipse;whiteSpace=wrap;html=1;aspect=fixed;fillStyle=auto;rounded=1;" vertex="1" parent="1">
                    <mxGeometry x="979.76" y="900" width="30" height="30" as="geometry"/>
                </mxCell>
                <mxCell id="657" value="J" style="ellipse;whiteSpace=wrap;html=1;aspect=fixed;fillStyle=auto;rounded=1;" vertex="1" parent="1">
                    <mxGeometry x="1029.76" y="370" width="30" height="30" as="geometry"/>
                </mxCell>
                <mxCell id="658" value="T" style="ellipse;whiteSpace=wrap;html=1;aspect=fixed;fillStyle=auto;rounded=1;" vertex="1" parent="1">
                    <mxGeometry x="1029.76" y="480" width="30" height="30" as="geometry"/>
                </mxCell>
                <mxCell id="659" value="d" style="ellipse;whiteSpace=wrap;html=1;aspect=fixed;fillStyle=auto;rounded=1;" vertex="1" parent="1">
                    <mxGeometry x="1019.76" y="620" width="30" height="30" as="geometry"/>
                </mxCell>
                <mxCell id="660" value="n" style="ellipse;whiteSpace=wrap;html=1;aspect=fixed;fillStyle=auto;rounded=1;" vertex="1" parent="1">
                    <mxGeometry x="1019.76" y="750" width="30" height="30" as="geometry"/>
                </mxCell>
                <mxCell id="661" value="x" style="ellipse;whiteSpace=wrap;html=1;aspect=fixed;fillStyle=auto;rounded=1;" vertex="1" parent="1">
                    <mxGeometry x="1019.76" y="900" width="30" height="30" as="geometry"/>
                </mxCell>
                <mxCell id="662" value="y" style="ellipse;whiteSpace=wrap;html=1;aspect=fixed;fillStyle=auto;rounded=1;" vertex="1" parent="1">
                    <mxGeometry x="659.76" y="1070" width="30" height="30" as="geometry"/>
                </mxCell>
                <mxCell id="663" value="z" style="ellipse;whiteSpace=wrap;html=1;aspect=fixed;fillStyle=auto;rounded=1;" vertex="1" parent="1">
                    <mxGeometry x="699.76" y="1070" width="30" height="30" as="geometry"/>
                </mxCell>
                <mxCell id="664" value="" style="endArrow=none;html=1;fontSize=24;jumpStyle=none;curved=1;rounded=1;" edge="1" parent="1">
                    <mxGeometry width="50" height="50" relative="1" as="geometry">
                        <mxPoint x="639.76" y="350" as="sourcePoint"/>
                        <mxPoint x="1019.76" y="350" as="targetPoint"/>
                    </mxGeometry>
                </mxCell>
                <mxCell id="665" value="" style="endArrow=none;html=1;fontSize=24;rounded=1;" edge="1" parent="1">
                    <mxGeometry width="50" height="50" relative="1" as="geometry">
                        <mxPoint x="639.76" y="680" as="sourcePoint"/>
                        <mxPoint x="1079.76" y="680" as="targetPoint"/>
                    </mxGeometry>
                </mxCell>
                <mxCell id="666" value="" style="endArrow=none;html=1;fontSize=24;rounded=1;" edge="1" parent="1">
                    <mxGeometry width="50" height="50" relative="1" as="geometry">
                        <mxPoint x="639.76" y="600" as="sourcePoint"/>
                        <mxPoint x="1019.76" y="600" as="targetPoint"/>
                    </mxGeometry>
                </mxCell>
                <mxCell id="667" value="" style="endArrow=none;html=1;fontSize=24;rounded=1;" edge="1" parent="1">
                    <mxGeometry width="50" height="50" relative="1" as="geometry">
                        <mxPoint x="629.76" y="460" as="sourcePoint"/>
                        <mxPoint x="1019.76" y="460" as="targetPoint"/>
                    </mxGeometry>
                </mxCell>
                <mxCell id="668" value="" style="endArrow=none;html=1;fontSize=24;curved=1;jumpStyle=none;rounded=1;" edge="1" parent="1">
                    <mxGeometry width="50" height="50" relative="1" as="geometry">
                        <mxPoint x="519.76" y="350" as="sourcePoint"/>
                        <mxPoint x="579.76" y="350" as="targetPoint"/>
                    </mxGeometry>
                </mxCell>
                <mxCell id="669" value="" style="endArrow=none;html=1;fontSize=24;curved=1;jumpStyle=none;rounded=1;" edge="1" parent="1">
                    <mxGeometry width="50" height="50" relative="1" as="geometry">
                        <mxPoint x="609.76" y="1020" as="sourcePoint"/>
                        <mxPoint x="609.76" y="370" as="targetPoint"/>
                    </mxGeometry>
                </mxCell>
                <mxCell id="670" value="" style="endArrow=none;html=1;fontSize=24;curved=1;jumpStyle=none;edgeStyle=orthogonalEdgeStyle;rounded=1;" edge="1" parent="1">
                    <mxGeometry width="50" height="50" relative="1" as="geometry">
                        <mxPoint x="579.76" y="350" as="sourcePoint"/>
                        <mxPoint x="609.76" y="370" as="targetPoint"/>
                    </mxGeometry>
                </mxCell>
                <mxCell id="671" value="" style="endArrow=none;html=1;fontSize=24;curved=1;jumpStyle=none;rounded=1;" edge="1" parent="1">
                    <mxGeometry width="50" height="50" relative="1" as="geometry">
                        <mxPoint x="579.76" y="350" as="sourcePoint"/>
                        <mxPoint x="639.76" y="350" as="targetPoint"/>
                    </mxGeometry>
                </mxCell>
                <mxCell id="672" value="" style="endArrow=none;html=1;fontSize=24;jumpStyle=none;edgeStyle=orthogonalEdgeStyle;curved=1;rounded=1;" edge="1" parent="1">
                    <mxGeometry width="50" height="50" relative="1" as="geometry">
                        <mxPoint x="639.76" y="430" as="sourcePoint"/>
                        <mxPoint x="609.76" y="410" as="targetPoint"/>
                    </mxGeometry>
                </mxCell>
                <mxCell id="673" value="" style="endArrow=none;html=1;fontSize=24;jumpStyle=none;edgeStyle=orthogonalEdgeStyle;curved=1;rounded=1;" edge="1" parent="1">
                    <mxGeometry width="50" height="50" relative="1" as="geometry">
                        <mxPoint x="639.76" y="600" as="sourcePoint"/>
                        <mxPoint x="609.76" y="570" as="targetPoint"/>
                    </mxGeometry>
                </mxCell>
                <mxCell id="674" value="" style="endArrow=none;html=1;fontSize=24;curved=1;jumpStyle=none;edgeStyle=orthogonalEdgeStyle;rounded=1;" edge="1" parent="1">
                    <mxGeometry width="50" height="50" relative="1" as="geometry">
                        <mxPoint x="639.76" y="680" as="sourcePoint"/>
                        <mxPoint x="609.76" y="650" as="targetPoint"/>
                    </mxGeometry>
                </mxCell>
                <mxCell id="675" value="" style="endArrow=none;html=1;fontSize=24;jumpStyle=none;entryX=0.5;entryY=0;entryDx=0;entryDy=0;edgeStyle=orthogonalEdgeStyle;curved=1;rounded=1;" edge="1" parent="1" target="657">
                    <mxGeometry width="50" height="50" relative="1" as="geometry">
                        <mxPoint x="1019.76" y="350" as="sourcePoint"/>
                        <mxPoint x="1039.76" y="400" as="targetPoint"/>
                    </mxGeometry>
                </mxCell>
                <mxCell id="676" value="" style="endArrow=none;html=1;fontSize=24;curved=1;jumpStyle=none;entryX=0.5;entryY=1;entryDx=0;entryDy=0;edgeStyle=orthogonalEdgeStyle;rounded=1;" edge="1" parent="1" target="657">
                    <mxGeometry width="50" height="50" relative="1" as="geometry">
                        <mxPoint x="1069.76" y="430" as="sourcePoint"/>
                        <mxPoint x="1039.76" y="400" as="targetPoint"/>
                    </mxGeometry>
                </mxCell>
                <mxCell id="677" value="" style="endArrow=none;html=1;fontSize=24;curved=1;jumpStyle=none;rounded=1;" edge="1" parent="1">
                    <mxGeometry width="50" height="50" relative="1" as="geometry">
                        <mxPoint x="1109.76" y="1090" as="sourcePoint"/>
                        <mxPoint x="1108.7099999999998" y="450" as="targetPoint"/>
                    </mxGeometry>
                </mxCell>
                <mxCell id="678" value="" style="endArrow=none;html=1;fontSize=24;curved=1;jumpStyle=none;edgeStyle=orthogonalEdgeStyle;rounded=1;" edge="1" parent="1">
                    <mxGeometry width="50" height="50" relative="1" as="geometry">
                        <mxPoint x="1078.7099999999998" y="430" as="sourcePoint"/>
                        <mxPoint x="1108.7099999999998" y="450" as="targetPoint"/>
                    </mxGeometry>
                </mxCell>
                <mxCell id="679" value="" style="endArrow=none;html=1;fontSize=24;jumpStyle=none;entryX=0.5;entryY=0;entryDx=0;entryDy=0;edgeStyle=orthogonalEdgeStyle;curved=1;rounded=1;" edge="1" parent="1">
                    <mxGeometry width="50" height="50" relative="1" as="geometry">
                        <mxPoint x="979.76" y="350" as="sourcePoint"/>
                        <mxPoint x="1004.76" y="370" as="targetPoint"/>
                    </mxGeometry>
                </mxCell>
                <mxCell id="680" value="" style="endArrow=none;html=1;fontSize=24;jumpStyle=none;entryX=0.5;entryY=0;entryDx=0;entryDy=0;edgeStyle=orthogonalEdgeStyle;curved=1;rounded=1;" edge="1" parent="1">
                    <mxGeometry width="50" height="50" relative="1" as="geometry">
                        <mxPoint x="939.76" y="350" as="sourcePoint"/>
                        <mxPoint x="964.76" y="370" as="targetPoint"/>
                    </mxGeometry>
                </mxCell>
                <mxCell id="681" value="" style="endArrow=none;html=1;fontSize=24;jumpStyle=none;entryX=0.5;entryY=0;entryDx=0;entryDy=0;edgeStyle=orthogonalEdgeStyle;curved=1;rounded=1;" edge="1" parent="1">
                    <mxGeometry width="50" height="50" relative="1" as="geometry">
                        <mxPoint x="899.76" y="350" as="sourcePoint"/>
                        <mxPoint x="924.76" y="370" as="targetPoint"/>
                    </mxGeometry>
                </mxCell>
                <mxCell id="682" value="" style="endArrow=none;html=1;fontSize=24;jumpStyle=none;entryX=0.5;entryY=0;entryDx=0;entryDy=0;edgeStyle=orthogonalEdgeStyle;curved=1;rounded=1;" edge="1" parent="1">
                    <mxGeometry width="50" height="50" relative="1" as="geometry">
                        <mxPoint x="859.76" y="350" as="sourcePoint"/>
                        <mxPoint x="884.76" y="370" as="targetPoint"/>
                    </mxGeometry>
                </mxCell>
                <mxCell id="683" value="" style="endArrow=none;html=1;fontSize=24;jumpStyle=none;entryX=0.5;entryY=0;entryDx=0;entryDy=0;edgeStyle=orthogonalEdgeStyle;curved=1;rounded=1;" edge="1" parent="1">
                    <mxGeometry width="50" height="50" relative="1" as="geometry">
                        <mxPoint x="819.76" y="350" as="sourcePoint"/>
                        <mxPoint x="844.76" y="370" as="targetPoint"/>
                    </mxGeometry>
                </mxCell>
                <mxCell id="684" value="" style="endArrow=none;html=1;fontSize=24;jumpStyle=none;entryX=0.5;entryY=0;entryDx=0;entryDy=0;edgeStyle=orthogonalEdgeStyle;curved=1;rounded=1;" edge="1" parent="1">
                    <mxGeometry width="50" height="50" relative="1" as="geometry">
                        <mxPoint x="779.76" y="350" as="sourcePoint"/>
                        <mxPoint x="804.76" y="370" as="targetPoint"/>
                    </mxGeometry>
                </mxCell>
                <mxCell id="685" value="" style="endArrow=none;html=1;fontSize=24;jumpStyle=none;entryX=0.5;entryY=0;entryDx=0;entryDy=0;edgeStyle=orthogonalEdgeStyle;curved=1;rounded=1;" edge="1" parent="1">
                    <mxGeometry width="50" height="50" relative="1" as="geometry">
                        <mxPoint x="739.76" y="350" as="sourcePoint"/>
                        <mxPoint x="764.76" y="370" as="targetPoint"/>
                    </mxGeometry>
                </mxCell>
                <mxCell id="686" value="" style="endArrow=none;html=1;fontSize=24;jumpStyle=none;entryX=0.5;entryY=0;entryDx=0;entryDy=0;edgeStyle=orthogonalEdgeStyle;curved=1;rounded=1;" edge="1" parent="1">
                    <mxGeometry width="50" height="50" relative="1" as="geometry">
                        <mxPoint x="699.76" y="350" as="sourcePoint"/>
                        <mxPoint x="724.76" y="370" as="targetPoint"/>
                    </mxGeometry>
                </mxCell>
                <mxCell id="687" value="" style="endArrow=none;html=1;fontSize=24;jumpStyle=none;entryX=0.5;entryY=0;entryDx=0;entryDy=0;edgeStyle=orthogonalEdgeStyle;curved=1;rounded=1;" edge="1" parent="1">
                    <mxGeometry width="50" height="50" relative="1" as="geometry">
                        <mxPoint x="659.76" y="350" as="sourcePoint"/>
                        <mxPoint x="684.76" y="370" as="targetPoint"/>
                    </mxGeometry>
                </mxCell>
                <mxCell id="688" value="" style="endArrow=none;html=1;fontSize=24;curved=1;jumpStyle=none;entryX=0.5;entryY=1;entryDx=0;entryDy=0;edgeStyle=orthogonalEdgeStyle;rounded=1;" edge="1" parent="1">
                    <mxGeometry width="50" height="50" relative="1" as="geometry">
                        <mxPoint x="1029.76" y="430" as="sourcePoint"/>
                        <mxPoint x="1004.76" y="400" as="targetPoint"/>
                    </mxGeometry>
                </mxCell>
                <mxCell id="689" value="" style="endArrow=none;html=1;fontSize=24;curved=1;jumpStyle=none;entryX=0.5;entryY=1;entryDx=0;entryDy=0;edgeStyle=orthogonalEdgeStyle;rounded=1;" edge="1" parent="1">
                    <mxGeometry width="50" height="50" relative="1" as="geometry">
                        <mxPoint x="989.76" y="430" as="sourcePoint"/>
                        <mxPoint x="964.76" y="400" as="targetPoint"/>
                    </mxGeometry>
                </mxCell>
                <mxCell id="690" value="" style="endArrow=none;html=1;fontSize=24;curved=1;jumpStyle=none;entryX=0.5;entryY=1;entryDx=0;entryDy=0;edgeStyle=orthogonalEdgeStyle;rounded=1;" edge="1" parent="1">
                    <mxGeometry width="50" height="50" relative="1" as="geometry">
                        <mxPoint x="949.76" y="430" as="sourcePoint"/>
                        <mxPoint x="924.76" y="400" as="targetPoint"/>
                    </mxGeometry>
                </mxCell>
                <mxCell id="691" value="" style="endArrow=none;html=1;fontSize=24;curved=1;jumpStyle=none;entryX=0.5;entryY=1;entryDx=0;entryDy=0;edgeStyle=orthogonalEdgeStyle;rounded=1;" edge="1" parent="1">
                    <mxGeometry width="50" height="50" relative="1" as="geometry">
                        <mxPoint x="909.76" y="430" as="sourcePoint"/>
                        <mxPoint x="884.76" y="400" as="targetPoint"/>
                    </mxGeometry>
                </mxCell>
                <mxCell id="692" value="" style="endArrow=none;html=1;fontSize=24;curved=1;jumpStyle=none;entryX=0.5;entryY=1;entryDx=0;entryDy=0;edgeStyle=orthogonalEdgeStyle;rounded=1;" edge="1" parent="1">
                    <mxGeometry width="50" height="50" relative="1" as="geometry">
                        <mxPoint x="869.76" y="430" as="sourcePoint"/>
                        <mxPoint x="844.76" y="400" as="targetPoint"/>
                    </mxGeometry>
                </mxCell>
                <mxCell id="693" value="" style="endArrow=none;html=1;fontSize=24;curved=1;jumpStyle=none;entryX=0.5;entryY=1;entryDx=0;entryDy=0;edgeStyle=orthogonalEdgeStyle;rounded=1;" edge="1" parent="1">
                    <mxGeometry width="50" height="50" relative="1" as="geometry">
                        <mxPoint x="829.76" y="430" as="sourcePoint"/>
                        <mxPoint x="804.76" y="400" as="targetPoint"/>
                    </mxGeometry>
                </mxCell>
                <mxCell id="694" value="" style="endArrow=none;html=1;fontSize=24;curved=1;jumpStyle=none;entryX=0.5;entryY=1;entryDx=0;entryDy=0;edgeStyle=orthogonalEdgeStyle;rounded=1;" edge="1" parent="1">
                    <mxGeometry width="50" height="50" relative="1" as="geometry">
                        <mxPoint x="789.76" y="430" as="sourcePoint"/>
                        <mxPoint x="764.76" y="400" as="targetPoint"/>
                    </mxGeometry>
                </mxCell>
                <mxCell id="695" value="" style="endArrow=none;html=1;fontSize=24;curved=1;jumpStyle=none;entryX=0.5;entryY=1;entryDx=0;entryDy=0;edgeStyle=orthogonalEdgeStyle;rounded=1;" edge="1" parent="1">
                    <mxGeometry width="50" height="50" relative="1" as="geometry">
                        <mxPoint x="749.76" y="430" as="sourcePoint"/>
                        <mxPoint x="724.76" y="400" as="targetPoint"/>
                    </mxGeometry>
                </mxCell>
                <mxCell id="696" value="" style="endArrow=none;html=1;fontSize=24;curved=1;jumpStyle=none;entryX=0.5;entryY=1;entryDx=0;entryDy=0;edgeStyle=orthogonalEdgeStyle;rounded=1;" edge="1" parent="1">
                    <mxGeometry width="50" height="50" relative="1" as="geometry">
                        <mxPoint x="709.76" y="430" as="sourcePoint"/>
                        <mxPoint x="684.76" y="400" as="targetPoint"/>
                        <Array as="points">
                            <mxPoint x="684.76" y="430"/>
                        </Array>
                    </mxGeometry>
                </mxCell>
                <mxCell id="697" value="" style="endArrow=none;html=1;fontSize=24;rounded=1;" edge="1" parent="1">
                    <mxGeometry width="50" height="50" relative="1" as="geometry">
                        <mxPoint x="638.7099999999998" y="430" as="sourcePoint"/>
                        <mxPoint x="1078.7099999999998" y="430" as="targetPoint"/>
                    </mxGeometry>
                </mxCell>
                <mxCell id="698" value="" style="endArrow=none;html=1;fontSize=24;jumpStyle=none;entryX=0.5;entryY=0;entryDx=0;entryDy=0;edgeStyle=orthogonalEdgeStyle;curved=1;rounded=1;" edge="1" parent="1">
                    <mxGeometry width="50" height="50" relative="1" as="geometry">
                        <mxPoint x="659.76" y="350.00000000000045" as="sourcePoint"/>
                        <mxPoint x="684.76" y="370.00000000000045" as="targetPoint"/>
                    </mxGeometry>
                </mxCell>
                <mxCell id="699" value="" style="endArrow=none;html=1;fontSize=24;jumpStyle=none;entryX=0.5;entryY=0;entryDx=0;entryDy=0;edgeStyle=orthogonalEdgeStyle;curved=1;rounded=1;" edge="1" parent="1">
                    <mxGeometry width="50" height="50" relative="1" as="geometry">
                        <mxPoint x="699.76" y="350.00000000000045" as="sourcePoint"/>
                        <mxPoint x="724.76" y="370.00000000000045" as="targetPoint"/>
                    </mxGeometry>
                </mxCell>
                <mxCell id="700" value="" style="endArrow=none;html=1;fontSize=24;jumpStyle=none;entryX=0.5;entryY=0;entryDx=0;entryDy=0;edgeStyle=orthogonalEdgeStyle;curved=1;rounded=1;" edge="1" parent="1">
                    <mxGeometry width="50" height="50" relative="1" as="geometry">
                        <mxPoint x="739.76" y="350.00000000000045" as="sourcePoint"/>
                        <mxPoint x="764.76" y="370.00000000000045" as="targetPoint"/>
                    </mxGeometry>
                </mxCell>
                <mxCell id="701" value="" style="endArrow=none;html=1;fontSize=24;jumpStyle=none;entryX=0.5;entryY=0;entryDx=0;entryDy=0;edgeStyle=orthogonalEdgeStyle;curved=1;rounded=1;" edge="1" parent="1">
                    <mxGeometry width="50" height="50" relative="1" as="geometry">
                        <mxPoint x="779.76" y="350.00000000000045" as="sourcePoint"/>
                        <mxPoint x="804.76" y="370.00000000000045" as="targetPoint"/>
                    </mxGeometry>
                </mxCell>
                <mxCell id="702" value="" style="endArrow=none;html=1;fontSize=24;jumpStyle=none;entryX=0.5;entryY=0;entryDx=0;entryDy=0;edgeStyle=orthogonalEdgeStyle;curved=1;rounded=1;" edge="1" parent="1">
                    <mxGeometry width="50" height="50" relative="1" as="geometry">
                        <mxPoint x="819.76" y="350.00000000000045" as="sourcePoint"/>
                        <mxPoint x="844.76" y="370.00000000000045" as="targetPoint"/>
                    </mxGeometry>
                </mxCell>
                <mxCell id="703" value="" style="endArrow=none;html=1;fontSize=24;jumpStyle=none;entryX=0.5;entryY=0;entryDx=0;entryDy=0;edgeStyle=orthogonalEdgeStyle;curved=1;rounded=1;" edge="1" parent="1">
                    <mxGeometry width="50" height="50" relative="1" as="geometry">
                        <mxPoint x="859.76" y="350.00000000000045" as="sourcePoint"/>
                        <mxPoint x="884.76" y="370.00000000000045" as="targetPoint"/>
                    </mxGeometry>
                </mxCell>
                <mxCell id="704" value="" style="endArrow=none;html=1;fontSize=24;jumpStyle=none;entryX=0.5;entryY=0;entryDx=0;entryDy=0;edgeStyle=orthogonalEdgeStyle;curved=1;rounded=1;" edge="1" parent="1">
                    <mxGeometry width="50" height="50" relative="1" as="geometry">
                        <mxPoint x="899.76" y="350.00000000000045" as="sourcePoint"/>
                        <mxPoint x="924.76" y="370.00000000000045" as="targetPoint"/>
                    </mxGeometry>
                </mxCell>
                <mxCell id="705" value="" style="endArrow=none;html=1;fontSize=24;jumpStyle=none;entryX=0.5;entryY=0;entryDx=0;entryDy=0;edgeStyle=orthogonalEdgeStyle;curved=1;rounded=1;" edge="1" parent="1">
                    <mxGeometry width="50" height="50" relative="1" as="geometry">
                        <mxPoint x="939.76" y="350.00000000000045" as="sourcePoint"/>
                        <mxPoint x="964.76" y="370.00000000000045" as="targetPoint"/>
                    </mxGeometry>
                </mxCell>
                <mxCell id="706" value="" style="endArrow=none;html=1;fontSize=24;jumpStyle=none;entryX=0.5;entryY=0;entryDx=0;entryDy=0;edgeStyle=orthogonalEdgeStyle;curved=1;rounded=1;" edge="1" parent="1">
                    <mxGeometry width="50" height="50" relative="1" as="geometry">
                        <mxPoint x="979.76" y="350.00000000000045" as="sourcePoint"/>
                        <mxPoint x="1004.76" y="370.00000000000045" as="targetPoint"/>
                    </mxGeometry>
                </mxCell>
                <mxCell id="707" value="" style="endArrow=none;html=1;fontSize=24;jumpStyle=none;entryX=0.5;entryY=0;entryDx=0;entryDy=0;edgeStyle=orthogonalEdgeStyle;curved=1;rounded=1;" edge="1" parent="1">
                    <mxGeometry width="50" height="50" relative="1" as="geometry">
                        <mxPoint x="659.76" y="350.00000000000045" as="sourcePoint"/>
                        <mxPoint x="684.76" y="370.00000000000045" as="targetPoint"/>
                    </mxGeometry>
                </mxCell>
                <mxCell id="708" value="" style="endArrow=none;html=1;fontSize=24;jumpStyle=none;entryX=0.5;entryY=0;entryDx=0;entryDy=0;edgeStyle=orthogonalEdgeStyle;curved=1;rounded=1;" edge="1" parent="1">
                    <mxGeometry width="50" height="50" relative="1" as="geometry">
                        <mxPoint x="699.76" y="350.00000000000045" as="sourcePoint"/>
                        <mxPoint x="724.76" y="370.00000000000045" as="targetPoint"/>
                    </mxGeometry>
                </mxCell>
                <mxCell id="709" value="" style="endArrow=none;html=1;fontSize=24;jumpStyle=none;entryX=0.5;entryY=0;entryDx=0;entryDy=0;edgeStyle=orthogonalEdgeStyle;curved=1;rounded=1;" edge="1" parent="1">
                    <mxGeometry width="50" height="50" relative="1" as="geometry">
                        <mxPoint x="739.76" y="350.00000000000045" as="sourcePoint"/>
                        <mxPoint x="764.76" y="370.00000000000045" as="targetPoint"/>
                    </mxGeometry>
                </mxCell>
                <mxCell id="710" value="" style="endArrow=none;html=1;fontSize=24;jumpStyle=none;entryX=0.5;entryY=0;entryDx=0;entryDy=0;edgeStyle=orthogonalEdgeStyle;curved=1;rounded=1;" edge="1" parent="1">
                    <mxGeometry width="50" height="50" relative="1" as="geometry">
                        <mxPoint x="779.76" y="350.00000000000045" as="sourcePoint"/>
                        <mxPoint x="804.76" y="370.00000000000045" as="targetPoint"/>
                    </mxGeometry>
                </mxCell>
                <mxCell id="711" value="" style="endArrow=none;html=1;fontSize=24;jumpStyle=none;entryX=0.5;entryY=0;entryDx=0;entryDy=0;edgeStyle=orthogonalEdgeStyle;curved=1;rounded=1;" edge="1" parent="1">
                    <mxGeometry width="50" height="50" relative="1" as="geometry">
                        <mxPoint x="819.76" y="350.00000000000045" as="sourcePoint"/>
                        <mxPoint x="844.76" y="370.00000000000045" as="targetPoint"/>
                    </mxGeometry>
                </mxCell>
                <mxCell id="712" value="" style="endArrow=none;html=1;fontSize=24;jumpStyle=none;entryX=0.5;entryY=0;entryDx=0;entryDy=0;edgeStyle=orthogonalEdgeStyle;curved=1;rounded=1;" edge="1" parent="1">
                    <mxGeometry width="50" height="50" relative="1" as="geometry">
                        <mxPoint x="859.76" y="350.00000000000045" as="sourcePoint"/>
                        <mxPoint x="884.76" y="370.00000000000045" as="targetPoint"/>
                    </mxGeometry>
                </mxCell>
                <mxCell id="713" value="" style="endArrow=none;html=1;fontSize=24;jumpStyle=none;entryX=0.5;entryY=0;entryDx=0;entryDy=0;edgeStyle=orthogonalEdgeStyle;curved=1;rounded=1;" edge="1" parent="1">
                    <mxGeometry width="50" height="50" relative="1" as="geometry">
                        <mxPoint x="899.76" y="350.00000000000045" as="sourcePoint"/>
                        <mxPoint x="924.76" y="370.00000000000045" as="targetPoint"/>
                    </mxGeometry>
                </mxCell>
                <mxCell id="714" value="" style="endArrow=none;html=1;fontSize=24;jumpStyle=none;entryX=0.5;entryY=0;entryDx=0;entryDy=0;edgeStyle=orthogonalEdgeStyle;curved=1;rounded=1;" edge="1" parent="1">
                    <mxGeometry width="50" height="50" relative="1" as="geometry">
                        <mxPoint x="939.76" y="350.00000000000045" as="sourcePoint"/>
                        <mxPoint x="964.76" y="370.00000000000045" as="targetPoint"/>
                    </mxGeometry>
                </mxCell>
                <mxCell id="715" value="" style="endArrow=none;html=1;fontSize=24;jumpStyle=none;entryX=0.5;entryY=0;entryDx=0;entryDy=0;edgeStyle=orthogonalEdgeStyle;curved=1;rounded=1;" edge="1" parent="1">
                    <mxGeometry width="50" height="50" relative="1" as="geometry">
                        <mxPoint x="979.76" y="350.00000000000045" as="sourcePoint"/>
                        <mxPoint x="1004.76" y="370.00000000000045" as="targetPoint"/>
                    </mxGeometry>
                </mxCell>
                <mxCell id="716" value="" style="endArrow=none;html=1;fontSize=24;jumpStyle=none;entryX=0.5;entryY=0;entryDx=0;entryDy=0;edgeStyle=orthogonalEdgeStyle;curved=1;rounded=1;" edge="1" parent="1">
                    <mxGeometry width="50" height="50" relative="1" as="geometry">
                        <mxPoint x="1017.26" y="460.00000000000045" as="sourcePoint"/>
                        <mxPoint x="1042.26" y="480.00000000000045" as="targetPoint"/>
                    </mxGeometry>
                </mxCell>
                <mxCell id="717" value="" style="endArrow=none;html=1;fontSize=24;jumpStyle=none;entryX=0.5;entryY=0;entryDx=0;entryDy=0;edgeStyle=orthogonalEdgeStyle;curved=1;rounded=1;" edge="1" parent="1">
                    <mxGeometry width="50" height="50" relative="1" as="geometry">
                        <mxPoint x="657.26" y="460.00000000000045" as="sourcePoint"/>
                        <mxPoint x="682.26" y="480.00000000000045" as="targetPoint"/>
                    </mxGeometry>
                </mxCell>
                <mxCell id="718" value="" style="endArrow=none;html=1;fontSize=24;jumpStyle=none;entryX=0.5;entryY=0;entryDx=0;entryDy=0;edgeStyle=orthogonalEdgeStyle;curved=1;rounded=1;" edge="1" parent="1">
                    <mxGeometry width="50" height="50" relative="1" as="geometry">
                        <mxPoint x="697.26" y="460.00000000000045" as="sourcePoint"/>
                        <mxPoint x="722.26" y="480.00000000000045" as="targetPoint"/>
                    </mxGeometry>
                </mxCell>
                <mxCell id="719" value="" style="endArrow=none;html=1;fontSize=24;jumpStyle=none;entryX=0.5;entryY=0;entryDx=0;entryDy=0;edgeStyle=orthogonalEdgeStyle;curved=1;rounded=1;" edge="1" parent="1">
                    <mxGeometry width="50" height="50" relative="1" as="geometry">
                        <mxPoint x="737.26" y="460.00000000000045" as="sourcePoint"/>
                        <mxPoint x="762.26" y="480.00000000000045" as="targetPoint"/>
                    </mxGeometry>
                </mxCell>
                <mxCell id="720" value="" style="endArrow=none;html=1;fontSize=24;jumpStyle=none;entryX=0.5;entryY=0;entryDx=0;entryDy=0;edgeStyle=orthogonalEdgeStyle;curved=1;rounded=1;" edge="1" parent="1">
                    <mxGeometry width="50" height="50" relative="1" as="geometry">
                        <mxPoint x="777.26" y="460.00000000000045" as="sourcePoint"/>
                        <mxPoint x="802.26" y="480.00000000000045" as="targetPoint"/>
                    </mxGeometry>
                </mxCell>
                <mxCell id="721" value="" style="endArrow=none;html=1;fontSize=24;jumpStyle=none;entryX=0.5;entryY=0;entryDx=0;entryDy=0;edgeStyle=orthogonalEdgeStyle;curved=1;rounded=1;" edge="1" parent="1">
                    <mxGeometry width="50" height="50" relative="1" as="geometry">
                        <mxPoint x="817.26" y="460.00000000000045" as="sourcePoint"/>
                        <mxPoint x="842.26" y="480.00000000000045" as="targetPoint"/>
                    </mxGeometry>
                </mxCell>
                <mxCell id="722" value="" style="endArrow=none;html=1;fontSize=24;jumpStyle=none;entryX=0.5;entryY=0;entryDx=0;entryDy=0;edgeStyle=orthogonalEdgeStyle;curved=1;rounded=1;" edge="1" parent="1">
                    <mxGeometry width="50" height="50" relative="1" as="geometry">
                        <mxPoint x="857.26" y="460.00000000000045" as="sourcePoint"/>
                        <mxPoint x="882.26" y="480.00000000000045" as="targetPoint"/>
                    </mxGeometry>
                </mxCell>
                <mxCell id="723" value="" style="endArrow=none;html=1;fontSize=24;jumpStyle=none;entryX=0.5;entryY=0;entryDx=0;entryDy=0;edgeStyle=orthogonalEdgeStyle;curved=1;rounded=1;" edge="1" parent="1">
                    <mxGeometry width="50" height="50" relative="1" as="geometry">
                        <mxPoint x="897.26" y="460.00000000000045" as="sourcePoint"/>
                        <mxPoint x="922.26" y="480.00000000000045" as="targetPoint"/>
                    </mxGeometry>
                </mxCell>
                <mxCell id="724" value="" style="endArrow=none;html=1;fontSize=24;jumpStyle=none;entryX=0.5;entryY=0;entryDx=0;entryDy=0;edgeStyle=orthogonalEdgeStyle;curved=1;rounded=1;" edge="1" parent="1">
                    <mxGeometry width="50" height="50" relative="1" as="geometry">
                        <mxPoint x="937.26" y="460.00000000000045" as="sourcePoint"/>
                        <mxPoint x="962.26" y="480.00000000000045" as="targetPoint"/>
                    </mxGeometry>
                </mxCell>
                <mxCell id="725" value="" style="endArrow=none;html=1;fontSize=24;jumpStyle=none;entryX=0.5;entryY=0;entryDx=0;entryDy=0;edgeStyle=orthogonalEdgeStyle;curved=1;rounded=1;" edge="1" parent="1">
                    <mxGeometry width="50" height="50" relative="1" as="geometry">
                        <mxPoint x="977.26" y="460.00000000000045" as="sourcePoint"/>
                        <mxPoint x="1002.26" y="480.00000000000045" as="targetPoint"/>
                    </mxGeometry>
                </mxCell>
                <mxCell id="726" value="" style="endArrow=none;html=1;fontSize=24;jumpStyle=none;edgeStyle=orthogonalEdgeStyle;curved=1;rounded=1;" edge="1" parent="1">
                    <mxGeometry width="50" height="50" relative="1" as="geometry">
                        <mxPoint x="640.2900000000002" y="540.0000000000005" as="sourcePoint"/>
                        <mxPoint x="610.2900000000002" y="520.0000000000005" as="targetPoint"/>
                    </mxGeometry>
                </mxCell>
                <mxCell id="727" value="" style="endArrow=none;html=1;fontSize=24;curved=1;jumpStyle=none;entryX=0.5;entryY=1;entryDx=0;entryDy=0;edgeStyle=orthogonalEdgeStyle;rounded=1;" edge="1" parent="1">
                    <mxGeometry width="50" height="50" relative="1" as="geometry">
                        <mxPoint x="1070.2900000000002" y="540.0000000000005" as="sourcePoint"/>
                        <mxPoint x="1045.2900000000002" y="510.00000000000045" as="targetPoint"/>
                    </mxGeometry>
                </mxCell>
                <mxCell id="728" value="" style="endArrow=none;html=1;fontSize=24;curved=1;jumpStyle=none;entryX=0.5;entryY=1;entryDx=0;entryDy=0;edgeStyle=orthogonalEdgeStyle;rounded=1;" edge="1" parent="1">
                    <mxGeometry width="50" height="50" relative="1" as="geometry">
                        <mxPoint x="1030.2900000000002" y="540.0000000000005" as="sourcePoint"/>
                        <mxPoint x="1005.2900000000002" y="510.00000000000045" as="targetPoint"/>
                    </mxGeometry>
                </mxCell>
                <mxCell id="729" value="" style="endArrow=none;html=1;fontSize=24;curved=1;jumpStyle=none;entryX=0.5;entryY=1;entryDx=0;entryDy=0;edgeStyle=orthogonalEdgeStyle;rounded=1;" edge="1" parent="1">
                    <mxGeometry width="50" height="50" relative="1" as="geometry">
                        <mxPoint x="990.2900000000002" y="540.0000000000005" as="sourcePoint"/>
                        <mxPoint x="965.2900000000002" y="510.00000000000045" as="targetPoint"/>
                    </mxGeometry>
                </mxCell>
                <mxCell id="730" value="" style="endArrow=none;html=1;fontSize=24;curved=1;jumpStyle=none;entryX=0.5;entryY=1;entryDx=0;entryDy=0;edgeStyle=orthogonalEdgeStyle;rounded=1;" edge="1" parent="1">
                    <mxGeometry width="50" height="50" relative="1" as="geometry">
                        <mxPoint x="950.2900000000002" y="540.0000000000005" as="sourcePoint"/>
                        <mxPoint x="925.2900000000002" y="510.00000000000045" as="targetPoint"/>
                    </mxGeometry>
                </mxCell>
                <mxCell id="731" value="" style="endArrow=none;html=1;fontSize=24;curved=1;jumpStyle=none;entryX=0.5;entryY=1;entryDx=0;entryDy=0;edgeStyle=orthogonalEdgeStyle;rounded=1;" edge="1" parent="1">
                    <mxGeometry width="50" height="50" relative="1" as="geometry">
                        <mxPoint x="910.2900000000002" y="540.0000000000005" as="sourcePoint"/>
                        <mxPoint x="885.2900000000002" y="510.00000000000045" as="targetPoint"/>
                    </mxGeometry>
                </mxCell>
                <mxCell id="732" value="" style="endArrow=none;html=1;fontSize=24;curved=1;jumpStyle=none;entryX=0.5;entryY=1;entryDx=0;entryDy=0;edgeStyle=orthogonalEdgeStyle;rounded=1;" edge="1" parent="1">
                    <mxGeometry width="50" height="50" relative="1" as="geometry">
                        <mxPoint x="870.2900000000002" y="540.0000000000005" as="sourcePoint"/>
                        <mxPoint x="845.2900000000002" y="510.00000000000045" as="targetPoint"/>
                    </mxGeometry>
                </mxCell>
                <mxCell id="733" value="" style="endArrow=none;html=1;fontSize=24;curved=1;jumpStyle=none;entryX=0.5;entryY=1;entryDx=0;entryDy=0;edgeStyle=orthogonalEdgeStyle;rounded=1;" edge="1" parent="1">
                    <mxGeometry width="50" height="50" relative="1" as="geometry">
                        <mxPoint x="830.2900000000002" y="540.0000000000005" as="sourcePoint"/>
                        <mxPoint x="805.2900000000002" y="510.00000000000045" as="targetPoint"/>
                    </mxGeometry>
                </mxCell>
                <mxCell id="734" value="" style="endArrow=none;html=1;fontSize=24;curved=1;jumpStyle=none;entryX=0.5;entryY=1;entryDx=0;entryDy=0;edgeStyle=orthogonalEdgeStyle;rounded=1;" edge="1" parent="1">
                    <mxGeometry width="50" height="50" relative="1" as="geometry">
                        <mxPoint x="790.2900000000002" y="540.0000000000005" as="sourcePoint"/>
                        <mxPoint x="765.2900000000002" y="510.00000000000045" as="targetPoint"/>
                    </mxGeometry>
                </mxCell>
                <mxCell id="735" value="" style="endArrow=none;html=1;fontSize=24;curved=1;jumpStyle=none;entryX=0.5;entryY=1;entryDx=0;entryDy=0;edgeStyle=orthogonalEdgeStyle;rounded=1;" edge="1" parent="1">
                    <mxGeometry width="50" height="50" relative="1" as="geometry">
                        <mxPoint x="750.2900000000002" y="540.0000000000005" as="sourcePoint"/>
                        <mxPoint x="725.2900000000002" y="510.00000000000045" as="targetPoint"/>
                    </mxGeometry>
                </mxCell>
                <mxCell id="736" value="" style="endArrow=none;html=1;fontSize=24;curved=1;jumpStyle=none;entryX=0.5;entryY=1;entryDx=0;entryDy=0;edgeStyle=orthogonalEdgeStyle;rounded=1;" edge="1" parent="1">
                    <mxGeometry width="50" height="50" relative="1" as="geometry">
                        <mxPoint x="710.2900000000002" y="540.0000000000005" as="sourcePoint"/>
                        <mxPoint x="685.2900000000002" y="510.00000000000045" as="targetPoint"/>
                        <Array as="points">
                            <mxPoint x="685.2900000000002" y="540"/>
                        </Array>
                    </mxGeometry>
                </mxCell>
                <mxCell id="737" value="" style="endArrow=none;html=1;fontSize=24;rounded=1;" edge="1" parent="1">
                    <mxGeometry width="50" height="50" relative="1" as="geometry">
                        <mxPoint x="639.2399999999996" y="540.0000000000005" as="sourcePoint"/>
                        <mxPoint x="1079.76" y="540" as="targetPoint"/>
                    </mxGeometry>
                </mxCell>
                <mxCell id="738" value="" style="endArrow=none;html=1;fontSize=24;jumpStyle=none;edgeStyle=orthogonalEdgeStyle;curved=1;rounded=1;" edge="1" parent="1">
                    <mxGeometry width="50" height="50" relative="1" as="geometry">
                        <mxPoint x="639.7700000000002" y="460.00000000000045" as="sourcePoint"/>
                        <mxPoint x="609.7700000000002" y="440.00000000000045" as="targetPoint"/>
                    </mxGeometry>
                </mxCell>
                <mxCell id="739" value="" style="endArrow=none;html=1;fontSize=24;jumpStyle=none;entryX=0.5;entryY=0;entryDx=0;entryDy=0;edgeStyle=orthogonalEdgeStyle;curved=1;rounded=1;" edge="1" parent="1">
                    <mxGeometry width="50" height="50" relative="1" as="geometry">
                        <mxPoint x="1012.26" y="600.0000000000005" as="sourcePoint"/>
                        <mxPoint x="1037.26" y="620.0000000000005" as="targetPoint"/>
                    </mxGeometry>
                </mxCell>
                <mxCell id="740" value="" style="endArrow=none;html=1;fontSize=24;jumpStyle=none;entryX=0.5;entryY=0;entryDx=0;entryDy=0;edgeStyle=orthogonalEdgeStyle;curved=1;rounded=1;" edge="1" parent="1">
                    <mxGeometry width="50" height="50" relative="1" as="geometry">
                        <mxPoint x="652.26" y="600.0000000000005" as="sourcePoint"/>
                        <mxPoint x="677.26" y="620.0000000000005" as="targetPoint"/>
                    </mxGeometry>
                </mxCell>
                <mxCell id="741" value="" style="endArrow=none;html=1;fontSize=24;jumpStyle=none;entryX=0.5;entryY=0;entryDx=0;entryDy=0;edgeStyle=orthogonalEdgeStyle;curved=1;rounded=1;" edge="1" parent="1">
                    <mxGeometry width="50" height="50" relative="1" as="geometry">
                        <mxPoint x="692.26" y="600.0000000000005" as="sourcePoint"/>
                        <mxPoint x="717.26" y="620.0000000000005" as="targetPoint"/>
                    </mxGeometry>
                </mxCell>
                <mxCell id="742" value="" style="endArrow=none;html=1;fontSize=24;jumpStyle=none;entryX=0.5;entryY=0;entryDx=0;entryDy=0;edgeStyle=orthogonalEdgeStyle;curved=1;rounded=1;" edge="1" parent="1">
                    <mxGeometry width="50" height="50" relative="1" as="geometry">
                        <mxPoint x="732.26" y="600.0000000000005" as="sourcePoint"/>
                        <mxPoint x="757.26" y="620.0000000000005" as="targetPoint"/>
                    </mxGeometry>
                </mxCell>
                <mxCell id="743" value="" style="endArrow=none;html=1;fontSize=24;jumpStyle=none;entryX=0.5;entryY=0;entryDx=0;entryDy=0;edgeStyle=orthogonalEdgeStyle;curved=1;rounded=1;" edge="1" parent="1">
                    <mxGeometry width="50" height="50" relative="1" as="geometry">
                        <mxPoint x="772.26" y="600.0000000000005" as="sourcePoint"/>
                        <mxPoint x="797.26" y="620.0000000000005" as="targetPoint"/>
                    </mxGeometry>
                </mxCell>
                <mxCell id="744" value="" style="endArrow=none;html=1;fontSize=24;jumpStyle=none;entryX=0.5;entryY=0;entryDx=0;entryDy=0;edgeStyle=orthogonalEdgeStyle;curved=1;rounded=1;" edge="1" parent="1">
                    <mxGeometry width="50" height="50" relative="1" as="geometry">
                        <mxPoint x="812.26" y="600.0000000000005" as="sourcePoint"/>
                        <mxPoint x="837.26" y="620.0000000000005" as="targetPoint"/>
                    </mxGeometry>
                </mxCell>
                <mxCell id="745" value="" style="endArrow=none;html=1;fontSize=24;jumpStyle=none;entryX=0.5;entryY=0;entryDx=0;entryDy=0;edgeStyle=orthogonalEdgeStyle;curved=1;rounded=1;" edge="1" parent="1">
                    <mxGeometry width="50" height="50" relative="1" as="geometry">
                        <mxPoint x="852.26" y="600.0000000000005" as="sourcePoint"/>
                        <mxPoint x="877.26" y="620.0000000000005" as="targetPoint"/>
                    </mxGeometry>
                </mxCell>
                <mxCell id="746" value="" style="endArrow=none;html=1;fontSize=24;jumpStyle=none;entryX=0.5;entryY=0;entryDx=0;entryDy=0;edgeStyle=orthogonalEdgeStyle;curved=1;rounded=1;" edge="1" parent="1">
                    <mxGeometry width="50" height="50" relative="1" as="geometry">
                        <mxPoint x="892.26" y="600.0000000000005" as="sourcePoint"/>
                        <mxPoint x="917.26" y="620.0000000000005" as="targetPoint"/>
                    </mxGeometry>
                </mxCell>
                <mxCell id="747" value="" style="endArrow=none;html=1;fontSize=24;jumpStyle=none;entryX=0.5;entryY=0;entryDx=0;entryDy=0;edgeStyle=orthogonalEdgeStyle;curved=1;rounded=1;" edge="1" parent="1">
                    <mxGeometry width="50" height="50" relative="1" as="geometry">
                        <mxPoint x="932.26" y="600.0000000000005" as="sourcePoint"/>
                        <mxPoint x="957.26" y="620.0000000000005" as="targetPoint"/>
                    </mxGeometry>
                </mxCell>
                <mxCell id="748" value="" style="endArrow=none;html=1;fontSize=24;jumpStyle=none;entryX=0.5;entryY=0;entryDx=0;entryDy=0;edgeStyle=orthogonalEdgeStyle;curved=1;rounded=1;" edge="1" parent="1">
                    <mxGeometry width="50" height="50" relative="1" as="geometry">
                        <mxPoint x="972.26" y="600.0000000000005" as="sourcePoint"/>
                        <mxPoint x="997.26" y="620.0000000000005" as="targetPoint"/>
                    </mxGeometry>
                </mxCell>
                <mxCell id="749" value="" style="endArrow=none;html=1;fontSize=24;curved=1;jumpStyle=none;entryX=0.5;entryY=1;entryDx=0;entryDy=0;edgeStyle=orthogonalEdgeStyle;rounded=1;" edge="1" parent="1">
                    <mxGeometry width="50" height="50" relative="1" as="geometry">
                        <mxPoint x="1059.76" y="680.0000000000005" as="sourcePoint"/>
                        <mxPoint x="1034.76" y="650.0000000000005" as="targetPoint"/>
                    </mxGeometry>
                </mxCell>
                <mxCell id="750" value="" style="endArrow=none;html=1;fontSize=24;curved=1;jumpStyle=none;entryX=0.5;entryY=1;entryDx=0;entryDy=0;edgeStyle=orthogonalEdgeStyle;rounded=1;" edge="1" parent="1">
                    <mxGeometry width="50" height="50" relative="1" as="geometry">
                        <mxPoint x="1019.76" y="680.0000000000005" as="sourcePoint"/>
                        <mxPoint x="994.76" y="650.0000000000005" as="targetPoint"/>
                    </mxGeometry>
                </mxCell>
                <mxCell id="751" value="" style="endArrow=none;html=1;fontSize=24;curved=1;jumpStyle=none;entryX=0.5;entryY=1;entryDx=0;entryDy=0;edgeStyle=orthogonalEdgeStyle;rounded=1;" edge="1" parent="1">
                    <mxGeometry width="50" height="50" relative="1" as="geometry">
                        <mxPoint x="979.76" y="680.0000000000005" as="sourcePoint"/>
                        <mxPoint x="954.76" y="650.0000000000005" as="targetPoint"/>
                    </mxGeometry>
                </mxCell>
                <mxCell id="752" value="" style="endArrow=none;html=1;fontSize=24;curved=1;jumpStyle=none;entryX=0.5;entryY=1;entryDx=0;entryDy=0;edgeStyle=orthogonalEdgeStyle;rounded=1;" edge="1" parent="1">
                    <mxGeometry width="50" height="50" relative="1" as="geometry">
                        <mxPoint x="939.76" y="680.0000000000005" as="sourcePoint"/>
                        <mxPoint x="914.76" y="650.0000000000005" as="targetPoint"/>
                    </mxGeometry>
                </mxCell>
                <mxCell id="753" value="" style="endArrow=none;html=1;fontSize=24;curved=1;jumpStyle=none;entryX=0.5;entryY=1;entryDx=0;entryDy=0;edgeStyle=orthogonalEdgeStyle;rounded=1;" edge="1" parent="1">
                    <mxGeometry width="50" height="50" relative="1" as="geometry">
                        <mxPoint x="899.76" y="680.0000000000005" as="sourcePoint"/>
                        <mxPoint x="874.76" y="650.0000000000005" as="targetPoint"/>
                        <Array as="points">
                            <mxPoint x="875.2299999999998" y="680"/>
                        </Array>
                    </mxGeometry>
                </mxCell>
                <mxCell id="754" value="" style="endArrow=none;html=1;fontSize=24;curved=1;jumpStyle=none;entryX=0.5;entryY=1;entryDx=0;entryDy=0;edgeStyle=orthogonalEdgeStyle;rounded=1;" edge="1" parent="1">
                    <mxGeometry width="50" height="50" relative="1" as="geometry">
                        <mxPoint x="859.76" y="680.0000000000005" as="sourcePoint"/>
                        <mxPoint x="834.76" y="650.0000000000005" as="targetPoint"/>
                    </mxGeometry>
                </mxCell>
                <mxCell id="755" value="" style="endArrow=none;html=1;fontSize=24;curved=1;jumpStyle=none;entryX=0.5;entryY=1;entryDx=0;entryDy=0;edgeStyle=orthogonalEdgeStyle;rounded=1;" edge="1" parent="1">
                    <mxGeometry width="50" height="50" relative="1" as="geometry">
                        <mxPoint x="819.76" y="680.0000000000005" as="sourcePoint"/>
                        <mxPoint x="794.76" y="650.0000000000005" as="targetPoint"/>
                    </mxGeometry>
                </mxCell>
                <mxCell id="756" value="" style="endArrow=none;html=1;fontSize=24;curved=1;jumpStyle=none;entryX=0.5;entryY=1;entryDx=0;entryDy=0;edgeStyle=orthogonalEdgeStyle;rounded=1;" edge="1" parent="1">
                    <mxGeometry width="50" height="50" relative="1" as="geometry">
                        <mxPoint x="779.76" y="680.0000000000005" as="sourcePoint"/>
                        <mxPoint x="754.76" y="650.0000000000005" as="targetPoint"/>
                    </mxGeometry>
                </mxCell>
                <mxCell id="757" value="" style="endArrow=none;html=1;fontSize=24;curved=1;jumpStyle=none;entryX=0.5;entryY=1;entryDx=0;entryDy=0;edgeStyle=orthogonalEdgeStyle;rounded=1;" edge="1" parent="1">
                    <mxGeometry width="50" height="50" relative="1" as="geometry">
                        <mxPoint x="739.76" y="680.0000000000005" as="sourcePoint"/>
                        <mxPoint x="714.76" y="650.0000000000005" as="targetPoint"/>
                    </mxGeometry>
                </mxCell>
                <mxCell id="758" value="" style="endArrow=none;html=1;fontSize=24;curved=1;jumpStyle=none;entryX=0.5;entryY=1;entryDx=0;entryDy=0;edgeStyle=orthogonalEdgeStyle;rounded=1;" edge="1" parent="1">
                    <mxGeometry width="50" height="50" relative="1" as="geometry">
                        <mxPoint x="699.76" y="680.0000000000005" as="sourcePoint"/>
                        <mxPoint x="674.76" y="650.0000000000005" as="targetPoint"/>
                        <Array as="points">
                            <mxPoint x="674.76" y="680"/>
                        </Array>
                    </mxGeometry>
                </mxCell>
                <mxCell id="759" value="" style="endArrow=none;html=1;fontSize=24;curved=1;jumpStyle=none;edgeStyle=orthogonalEdgeStyle;rounded=1;" edge="1" parent="1">
                    <mxGeometry width="50" height="50" relative="1" as="geometry">
                        <mxPoint x="1079.76" y="680" as="sourcePoint"/>
                        <mxPoint x="1109.76" y="710" as="targetPoint"/>
                    </mxGeometry>
                </mxCell>
                <mxCell id="760" value="" style="endArrow=none;html=1;fontSize=24;curved=1;jumpStyle=none;edgeStyle=orthogonalEdgeStyle;rounded=1;" edge="1" parent="1">
                    <mxGeometry width="50" height="50" relative="1" as="geometry">
                        <mxPoint x="1079.76" y="540" as="sourcePoint"/>
                        <mxPoint x="1109.76" y="570" as="targetPoint"/>
                    </mxGeometry>
                </mxCell>
                <mxCell id="761" value="" style="endArrow=none;html=1;fontSize=24;rounded=1;" edge="1" parent="1">
                    <mxGeometry width="50" height="50" relative="1" as="geometry">
                        <mxPoint x="639.76" y="810" as="sourcePoint"/>
                        <mxPoint x="1079.76" y="810" as="targetPoint"/>
                    </mxGeometry>
                </mxCell>
                <mxCell id="762" value="" style="endArrow=none;html=1;fontSize=24;rounded=1;" edge="1" parent="1">
                    <mxGeometry width="50" height="50" relative="1" as="geometry">
                        <mxPoint x="639.76" y="730" as="sourcePoint"/>
                        <mxPoint x="1019.76" y="730" as="targetPoint"/>
                    </mxGeometry>
                </mxCell>
                <mxCell id="763" value="" style="endArrow=none;html=1;fontSize=24;jumpStyle=none;edgeStyle=orthogonalEdgeStyle;curved=1;rounded=1;" edge="1" parent="1">
                    <mxGeometry width="50" height="50" relative="1" as="geometry">
                        <mxPoint x="639.76" y="730" as="sourcePoint"/>
                        <mxPoint x="609.76" y="700" as="targetPoint"/>
                    </mxGeometry>
                </mxCell>
                <mxCell id="764" value="" style="endArrow=none;html=1;fontSize=24;curved=1;jumpStyle=none;edgeStyle=orthogonalEdgeStyle;rounded=1;" edge="1" parent="1">
                    <mxGeometry width="50" height="50" relative="1" as="geometry">
                        <mxPoint x="639.76" y="810" as="sourcePoint"/>
                        <mxPoint x="609.76" y="780" as="targetPoint"/>
                    </mxGeometry>
                </mxCell>
                <mxCell id="765" value="" style="endArrow=none;html=1;fontSize=24;jumpStyle=none;entryX=0.5;entryY=0;entryDx=0;entryDy=0;edgeStyle=orthogonalEdgeStyle;curved=1;rounded=1;" edge="1" parent="1">
                    <mxGeometry width="50" height="50" relative="1" as="geometry">
                        <mxPoint x="1012.26" y="730.0000000000005" as="sourcePoint"/>
                        <mxPoint x="1037.26" y="750.0000000000005" as="targetPoint"/>
                    </mxGeometry>
                </mxCell>
                <mxCell id="766" value="" style="endArrow=none;html=1;fontSize=24;jumpStyle=none;entryX=0.5;entryY=0;entryDx=0;entryDy=0;edgeStyle=orthogonalEdgeStyle;curved=1;rounded=1;" edge="1" parent="1">
                    <mxGeometry width="50" height="50" relative="1" as="geometry">
                        <mxPoint x="652.26" y="730.0000000000005" as="sourcePoint"/>
                        <mxPoint x="677.26" y="750.0000000000005" as="targetPoint"/>
                    </mxGeometry>
                </mxCell>
                <mxCell id="767" value="" style="endArrow=none;html=1;fontSize=24;jumpStyle=none;entryX=0.5;entryY=0;entryDx=0;entryDy=0;edgeStyle=orthogonalEdgeStyle;curved=1;rounded=1;" edge="1" parent="1">
                    <mxGeometry width="50" height="50" relative="1" as="geometry">
                        <mxPoint x="692.26" y="730.0000000000005" as="sourcePoint"/>
                        <mxPoint x="717.26" y="750.0000000000005" as="targetPoint"/>
                    </mxGeometry>
                </mxCell>
                <mxCell id="768" value="" style="endArrow=none;html=1;fontSize=24;jumpStyle=none;entryX=0.5;entryY=0;entryDx=0;entryDy=0;edgeStyle=orthogonalEdgeStyle;curved=1;rounded=1;" edge="1" parent="1">
                    <mxGeometry width="50" height="50" relative="1" as="geometry">
                        <mxPoint x="732.26" y="730.0000000000005" as="sourcePoint"/>
                        <mxPoint x="757.26" y="750.0000000000005" as="targetPoint"/>
                    </mxGeometry>
                </mxCell>
                <mxCell id="769" value="" style="endArrow=none;html=1;fontSize=24;jumpStyle=none;entryX=0.5;entryY=0;entryDx=0;entryDy=0;edgeStyle=orthogonalEdgeStyle;curved=1;rounded=1;" edge="1" parent="1">
                    <mxGeometry width="50" height="50" relative="1" as="geometry">
                        <mxPoint x="772.26" y="730.0000000000005" as="sourcePoint"/>
                        <mxPoint x="797.26" y="750.0000000000005" as="targetPoint"/>
                    </mxGeometry>
                </mxCell>
                <mxCell id="770" value="" style="endArrow=none;html=1;fontSize=24;jumpStyle=none;entryX=0.5;entryY=0;entryDx=0;entryDy=0;edgeStyle=orthogonalEdgeStyle;curved=1;rounded=1;" edge="1" parent="1">
                    <mxGeometry width="50" height="50" relative="1" as="geometry">
                        <mxPoint x="812.26" y="730.0000000000005" as="sourcePoint"/>
                        <mxPoint x="837.26" y="750.0000000000005" as="targetPoint"/>
                    </mxGeometry>
                </mxCell>
                <mxCell id="771" value="" style="endArrow=none;html=1;fontSize=24;jumpStyle=none;entryX=0.5;entryY=0;entryDx=0;entryDy=0;edgeStyle=orthogonalEdgeStyle;curved=1;rounded=1;" edge="1" parent="1">
                    <mxGeometry width="50" height="50" relative="1" as="geometry">
                        <mxPoint x="852.26" y="730.0000000000005" as="sourcePoint"/>
                        <mxPoint x="877.26" y="750.0000000000005" as="targetPoint"/>
                    </mxGeometry>
                </mxCell>
                <mxCell id="772" value="" style="endArrow=none;html=1;fontSize=24;jumpStyle=none;entryX=0.5;entryY=0;entryDx=0;entryDy=0;edgeStyle=orthogonalEdgeStyle;curved=1;rounded=1;" edge="1" parent="1">
                    <mxGeometry width="50" height="50" relative="1" as="geometry">
                        <mxPoint x="892.26" y="730.0000000000005" as="sourcePoint"/>
                        <mxPoint x="917.26" y="750.0000000000005" as="targetPoint"/>
                    </mxGeometry>
                </mxCell>
                <mxCell id="773" value="" style="endArrow=none;html=1;fontSize=24;jumpStyle=none;entryX=0.5;entryY=0;entryDx=0;entryDy=0;edgeStyle=orthogonalEdgeStyle;curved=1;rounded=1;" edge="1" parent="1">
                    <mxGeometry width="50" height="50" relative="1" as="geometry">
                        <mxPoint x="932.26" y="730.0000000000005" as="sourcePoint"/>
                        <mxPoint x="957.26" y="750.0000000000005" as="targetPoint"/>
                    </mxGeometry>
                </mxCell>
                <mxCell id="774" value="" style="endArrow=none;html=1;fontSize=24;jumpStyle=none;entryX=0.5;entryY=0;entryDx=0;entryDy=0;edgeStyle=orthogonalEdgeStyle;curved=1;rounded=1;" edge="1" parent="1">
                    <mxGeometry width="50" height="50" relative="1" as="geometry">
                        <mxPoint x="972.26" y="730.0000000000005" as="sourcePoint"/>
                        <mxPoint x="997.26" y="750.0000000000005" as="targetPoint"/>
                    </mxGeometry>
                </mxCell>
                <mxCell id="775" value="" style="endArrow=none;html=1;fontSize=24;curved=1;jumpStyle=none;entryX=0.5;entryY=1;entryDx=0;entryDy=0;edgeStyle=orthogonalEdgeStyle;rounded=1;" edge="1" parent="1">
                    <mxGeometry width="50" height="50" relative="1" as="geometry">
                        <mxPoint x="1059.76" y="810.0000000000005" as="sourcePoint"/>
                        <mxPoint x="1034.76" y="780.0000000000005" as="targetPoint"/>
                    </mxGeometry>
                </mxCell>
                <mxCell id="776" value="" style="endArrow=none;html=1;fontSize=24;curved=1;jumpStyle=none;entryX=0.5;entryY=1;entryDx=0;entryDy=0;edgeStyle=orthogonalEdgeStyle;rounded=1;" edge="1" parent="1">
                    <mxGeometry width="50" height="50" relative="1" as="geometry">
                        <mxPoint x="1019.76" y="810.0000000000005" as="sourcePoint"/>
                        <mxPoint x="994.76" y="780.0000000000005" as="targetPoint"/>
                    </mxGeometry>
                </mxCell>
                <mxCell id="777" value="" style="endArrow=none;html=1;fontSize=24;curved=1;jumpStyle=none;entryX=0.5;entryY=1;entryDx=0;entryDy=0;edgeStyle=orthogonalEdgeStyle;rounded=1;" edge="1" parent="1">
                    <mxGeometry width="50" height="50" relative="1" as="geometry">
                        <mxPoint x="979.76" y="810.0000000000005" as="sourcePoint"/>
                        <mxPoint x="954.76" y="780.0000000000005" as="targetPoint"/>
                    </mxGeometry>
                </mxCell>
                <mxCell id="778" value="" style="endArrow=none;html=1;fontSize=24;curved=1;jumpStyle=none;entryX=0.5;entryY=1;entryDx=0;entryDy=0;edgeStyle=orthogonalEdgeStyle;rounded=1;" edge="1" parent="1">
                    <mxGeometry width="50" height="50" relative="1" as="geometry">
                        <mxPoint x="939.76" y="810.0000000000005" as="sourcePoint"/>
                        <mxPoint x="914.76" y="780.0000000000005" as="targetPoint"/>
                    </mxGeometry>
                </mxCell>
                <mxCell id="779" value="" style="endArrow=none;html=1;fontSize=24;curved=1;jumpStyle=none;entryX=0.5;entryY=1;entryDx=0;entryDy=0;edgeStyle=orthogonalEdgeStyle;rounded=1;" edge="1" parent="1">
                    <mxGeometry width="50" height="50" relative="1" as="geometry">
                        <mxPoint x="899.76" y="810.0000000000005" as="sourcePoint"/>
                        <mxPoint x="874.76" y="780.0000000000005" as="targetPoint"/>
                        <Array as="points">
                            <mxPoint x="875.2299999999998" y="810"/>
                        </Array>
                    </mxGeometry>
                </mxCell>
                <mxCell id="780" value="" style="endArrow=none;html=1;fontSize=24;curved=1;jumpStyle=none;entryX=0.5;entryY=1;entryDx=0;entryDy=0;edgeStyle=orthogonalEdgeStyle;rounded=1;" edge="1" parent="1">
                    <mxGeometry width="50" height="50" relative="1" as="geometry">
                        <mxPoint x="859.76" y="810.0000000000005" as="sourcePoint"/>
                        <mxPoint x="834.76" y="780.0000000000005" as="targetPoint"/>
                    </mxGeometry>
                </mxCell>
                <mxCell id="781" value="" style="endArrow=none;html=1;fontSize=24;curved=1;jumpStyle=none;entryX=0.5;entryY=1;entryDx=0;entryDy=0;edgeStyle=orthogonalEdgeStyle;rounded=1;" edge="1" parent="1">
                    <mxGeometry width="50" height="50" relative="1" as="geometry">
                        <mxPoint x="819.76" y="810.0000000000005" as="sourcePoint"/>
                        <mxPoint x="794.76" y="780.0000000000005" as="targetPoint"/>
                    </mxGeometry>
                </mxCell>
                <mxCell id="782" value="" style="endArrow=none;html=1;fontSize=24;curved=1;jumpStyle=none;entryX=0.5;entryY=1;entryDx=0;entryDy=0;edgeStyle=orthogonalEdgeStyle;rounded=1;" edge="1" parent="1">
                    <mxGeometry width="50" height="50" relative="1" as="geometry">
                        <mxPoint x="779.76" y="810.0000000000005" as="sourcePoint"/>
                        <mxPoint x="754.76" y="780.0000000000005" as="targetPoint"/>
                    </mxGeometry>
                </mxCell>
                <mxCell id="783" value="" style="endArrow=none;html=1;fontSize=24;curved=1;jumpStyle=none;entryX=0.5;entryY=1;entryDx=0;entryDy=0;edgeStyle=orthogonalEdgeStyle;rounded=1;" edge="1" parent="1">
                    <mxGeometry width="50" height="50" relative="1" as="geometry">
                        <mxPoint x="739.76" y="810.0000000000005" as="sourcePoint"/>
                        <mxPoint x="714.76" y="780.0000000000005" as="targetPoint"/>
                    </mxGeometry>
                </mxCell>
                <mxCell id="784" value="" style="endArrow=none;html=1;fontSize=24;curved=1;jumpStyle=none;entryX=0.5;entryY=1;entryDx=0;entryDy=0;edgeStyle=orthogonalEdgeStyle;rounded=1;" edge="1" parent="1">
                    <mxGeometry width="50" height="50" relative="1" as="geometry">
                        <mxPoint x="699.76" y="810.0000000000005" as="sourcePoint"/>
                        <mxPoint x="674.76" y="780.0000000000005" as="targetPoint"/>
                        <Array as="points">
                            <mxPoint x="674.76" y="810"/>
                        </Array>
                    </mxGeometry>
                </mxCell>
                <mxCell id="785" value="" style="endArrow=none;html=1;fontSize=24;curved=1;jumpStyle=none;edgeStyle=orthogonalEdgeStyle;rounded=1;" edge="1" parent="1">
                    <mxGeometry width="50" height="50" relative="1" as="geometry">
                        <mxPoint x="1079.76" y="810" as="sourcePoint"/>
                        <mxPoint x="1109.76" y="840" as="targetPoint"/>
                    </mxGeometry>
                </mxCell>
                <mxCell id="786" value="" style="endArrow=none;html=1;fontSize=24;curved=1;jumpStyle=none;edgeStyle=orthogonalEdgeStyle;rounded=1;" edge="1" parent="1">
                    <mxGeometry width="50" height="50" relative="1" as="geometry">
                        <mxPoint x="1079.76" y="680" as="sourcePoint"/>
                        <mxPoint x="1109.76" y="710" as="targetPoint"/>
                    </mxGeometry>
                </mxCell>
                <mxCell id="787" value="" style="endArrow=none;html=1;fontSize=24;rounded=1;" edge="1" parent="1">
                    <mxGeometry width="50" height="50" relative="1" as="geometry">
                        <mxPoint x="639.7900000000002" y="960" as="sourcePoint"/>
                        <mxPoint x="1079.7900000000002" y="960" as="targetPoint"/>
                    </mxGeometry>
                </mxCell>
                <mxCell id="788" value="" style="endArrow=none;html=1;fontSize=24;rounded=1;" edge="1" parent="1">
                    <mxGeometry width="50" height="50" relative="1" as="geometry">
                        <mxPoint x="639.7900000000002" y="880" as="sourcePoint"/>
                        <mxPoint x="1019.7900000000002" y="880" as="targetPoint"/>
                    </mxGeometry>
                </mxCell>
                <mxCell id="789" value="" style="endArrow=none;html=1;fontSize=24;curved=1;jumpStyle=none;edgeStyle=orthogonalEdgeStyle;rounded=1;" edge="1" parent="1">
                    <mxGeometry width="50" height="50" relative="1" as="geometry">
                        <mxPoint x="639.7900000000002" y="960" as="sourcePoint"/>
                        <mxPoint x="609.7900000000002" y="930" as="targetPoint"/>
                    </mxGeometry>
                </mxCell>
                <mxCell id="790" value="" style="endArrow=none;html=1;fontSize=24;jumpStyle=none;entryX=0.5;entryY=0;entryDx=0;entryDy=0;edgeStyle=orthogonalEdgeStyle;curved=1;rounded=1;" edge="1" parent="1">
                    <mxGeometry width="50" height="50" relative="1" as="geometry">
                        <mxPoint x="1012.2900000000002" y="880.0000000000005" as="sourcePoint"/>
                        <mxPoint x="1037.2900000000002" y="900.0000000000005" as="targetPoint"/>
                    </mxGeometry>
                </mxCell>
                <mxCell id="791" value="" style="endArrow=none;html=1;fontSize=24;jumpStyle=none;entryX=0.5;entryY=0;entryDx=0;entryDy=0;edgeStyle=orthogonalEdgeStyle;curved=1;rounded=1;" edge="1" parent="1">
                    <mxGeometry width="50" height="50" relative="1" as="geometry">
                        <mxPoint x="652.2900000000002" y="880.0000000000005" as="sourcePoint"/>
                        <mxPoint x="677.2900000000002" y="900.0000000000005" as="targetPoint"/>
                    </mxGeometry>
                </mxCell>
                <mxCell id="792" value="" style="endArrow=none;html=1;fontSize=24;jumpStyle=none;entryX=0.5;entryY=0;entryDx=0;entryDy=0;edgeStyle=orthogonalEdgeStyle;curved=1;rounded=1;" edge="1" parent="1">
                    <mxGeometry width="50" height="50" relative="1" as="geometry">
                        <mxPoint x="692.2900000000002" y="880.0000000000005" as="sourcePoint"/>
                        <mxPoint x="717.2900000000002" y="900.0000000000005" as="targetPoint"/>
                    </mxGeometry>
                </mxCell>
                <mxCell id="793" value="" style="endArrow=none;html=1;fontSize=24;jumpStyle=none;entryX=0.5;entryY=0;entryDx=0;entryDy=0;edgeStyle=orthogonalEdgeStyle;curved=1;rounded=1;" edge="1" parent="1">
                    <mxGeometry width="50" height="50" relative="1" as="geometry">
                        <mxPoint x="732.2900000000002" y="880.0000000000005" as="sourcePoint"/>
                        <mxPoint x="757.2900000000002" y="900.0000000000005" as="targetPoint"/>
                    </mxGeometry>
                </mxCell>
                <mxCell id="794" value="" style="endArrow=none;html=1;fontSize=24;jumpStyle=none;entryX=0.5;entryY=0;entryDx=0;entryDy=0;edgeStyle=orthogonalEdgeStyle;curved=1;rounded=1;" edge="1" parent="1">
                    <mxGeometry width="50" height="50" relative="1" as="geometry">
                        <mxPoint x="772.2900000000002" y="880.0000000000005" as="sourcePoint"/>
                        <mxPoint x="797.2900000000002" y="900.0000000000005" as="targetPoint"/>
                    </mxGeometry>
                </mxCell>
                <mxCell id="795" value="" style="endArrow=none;html=1;fontSize=24;jumpStyle=none;entryX=0.5;entryY=0;entryDx=0;entryDy=0;edgeStyle=orthogonalEdgeStyle;curved=1;rounded=1;" edge="1" parent="1">
                    <mxGeometry width="50" height="50" relative="1" as="geometry">
                        <mxPoint x="812.2900000000002" y="880.0000000000005" as="sourcePoint"/>
                        <mxPoint x="837.2900000000002" y="900.0000000000005" as="targetPoint"/>
                    </mxGeometry>
                </mxCell>
                <mxCell id="796" value="" style="endArrow=none;html=1;fontSize=24;jumpStyle=none;entryX=0.5;entryY=0;entryDx=0;entryDy=0;edgeStyle=orthogonalEdgeStyle;curved=1;rounded=1;" edge="1" parent="1">
                    <mxGeometry width="50" height="50" relative="1" as="geometry">
                        <mxPoint x="852.2900000000002" y="880.0000000000005" as="sourcePoint"/>
                        <mxPoint x="877.2900000000002" y="900.0000000000005" as="targetPoint"/>
                    </mxGeometry>
                </mxCell>
                <mxCell id="797" value="" style="endArrow=none;html=1;fontSize=24;jumpStyle=none;entryX=0.5;entryY=0;entryDx=0;entryDy=0;edgeStyle=orthogonalEdgeStyle;curved=1;rounded=1;" edge="1" parent="1">
                    <mxGeometry width="50" height="50" relative="1" as="geometry">
                        <mxPoint x="892.2900000000002" y="880.0000000000005" as="sourcePoint"/>
                        <mxPoint x="917.2900000000002" y="900.0000000000005" as="targetPoint"/>
                    </mxGeometry>
                </mxCell>
                <mxCell id="798" value="" style="endArrow=none;html=1;fontSize=24;jumpStyle=none;entryX=0.5;entryY=0;entryDx=0;entryDy=0;edgeStyle=orthogonalEdgeStyle;curved=1;rounded=1;" edge="1" parent="1">
                    <mxGeometry width="50" height="50" relative="1" as="geometry">
                        <mxPoint x="932.2900000000002" y="880.0000000000005" as="sourcePoint"/>
                        <mxPoint x="957.2900000000002" y="900.0000000000005" as="targetPoint"/>
                    </mxGeometry>
                </mxCell>
                <mxCell id="799" value="" style="endArrow=none;html=1;fontSize=24;jumpStyle=none;entryX=0.5;entryY=0;entryDx=0;entryDy=0;edgeStyle=orthogonalEdgeStyle;curved=1;rounded=1;" edge="1" parent="1">
                    <mxGeometry width="50" height="50" relative="1" as="geometry">
                        <mxPoint x="972.2900000000002" y="880.0000000000005" as="sourcePoint"/>
                        <mxPoint x="997.2900000000002" y="900.0000000000005" as="targetPoint"/>
                    </mxGeometry>
                </mxCell>
                <mxCell id="800" value="" style="endArrow=none;html=1;fontSize=24;curved=1;jumpStyle=none;entryX=0.5;entryY=1;entryDx=0;entryDy=0;edgeStyle=orthogonalEdgeStyle;rounded=1;" edge="1" parent="1">
                    <mxGeometry width="50" height="50" relative="1" as="geometry">
                        <mxPoint x="1059.7900000000002" y="960.0000000000005" as="sourcePoint"/>
                        <mxPoint x="1034.7900000000002" y="930.0000000000005" as="targetPoint"/>
                    </mxGeometry>
                </mxCell>
                <mxCell id="801" value="" style="endArrow=none;html=1;fontSize=24;curved=1;jumpStyle=none;entryX=0.5;entryY=1;entryDx=0;entryDy=0;edgeStyle=orthogonalEdgeStyle;rounded=1;" edge="1" parent="1">
                    <mxGeometry width="50" height="50" relative="1" as="geometry">
                        <mxPoint x="1019.7900000000002" y="960.0000000000005" as="sourcePoint"/>
                        <mxPoint x="994.7900000000002" y="930.0000000000005" as="targetPoint"/>
                    </mxGeometry>
                </mxCell>
                <mxCell id="802" value="" style="endArrow=none;html=1;fontSize=24;curved=1;jumpStyle=none;entryX=0.5;entryY=1;entryDx=0;entryDy=0;edgeStyle=orthogonalEdgeStyle;rounded=1;" edge="1" parent="1">
                    <mxGeometry width="50" height="50" relative="1" as="geometry">
                        <mxPoint x="979.7900000000002" y="960.0000000000005" as="sourcePoint"/>
                        <mxPoint x="954.7900000000002" y="930.0000000000005" as="targetPoint"/>
                    </mxGeometry>
                </mxCell>
                <mxCell id="803" value="" style="endArrow=none;html=1;fontSize=24;curved=1;jumpStyle=none;entryX=0.5;entryY=1;entryDx=0;entryDy=0;edgeStyle=orthogonalEdgeStyle;rounded=1;" edge="1" parent="1">
                    <mxGeometry width="50" height="50" relative="1" as="geometry">
                        <mxPoint x="939.7900000000002" y="960.0000000000005" as="sourcePoint"/>
                        <mxPoint x="914.7900000000002" y="930.0000000000005" as="targetPoint"/>
                    </mxGeometry>
                </mxCell>
                <mxCell id="804" value="" style="endArrow=none;html=1;fontSize=24;curved=1;jumpStyle=none;entryX=0.5;entryY=1;entryDx=0;entryDy=0;edgeStyle=orthogonalEdgeStyle;rounded=1;" edge="1" parent="1">
                    <mxGeometry width="50" height="50" relative="1" as="geometry">
                        <mxPoint x="899.7900000000002" y="960.0000000000005" as="sourcePoint"/>
                        <mxPoint x="874.7900000000002" y="930.0000000000005" as="targetPoint"/>
                        <Array as="points">
                            <mxPoint x="875.26" y="960"/>
                        </Array>
                    </mxGeometry>
                </mxCell>
                <mxCell id="805" value="" style="endArrow=none;html=1;fontSize=24;curved=1;jumpStyle=none;entryX=0.5;entryY=1;entryDx=0;entryDy=0;edgeStyle=orthogonalEdgeStyle;rounded=1;" edge="1" parent="1">
                    <mxGeometry width="50" height="50" relative="1" as="geometry">
                        <mxPoint x="859.7900000000002" y="960.0000000000005" as="sourcePoint"/>
                        <mxPoint x="834.7900000000002" y="930.0000000000005" as="targetPoint"/>
                    </mxGeometry>
                </mxCell>
                <mxCell id="806" value="" style="endArrow=none;html=1;fontSize=24;curved=1;jumpStyle=none;entryX=0.5;entryY=1;entryDx=0;entryDy=0;edgeStyle=orthogonalEdgeStyle;rounded=1;" edge="1" parent="1">
                    <mxGeometry width="50" height="50" relative="1" as="geometry">
                        <mxPoint x="819.7900000000002" y="960.0000000000005" as="sourcePoint"/>
                        <mxPoint x="794.7900000000002" y="930.0000000000005" as="targetPoint"/>
                    </mxGeometry>
                </mxCell>
                <mxCell id="807" value="" style="endArrow=none;html=1;fontSize=24;curved=1;jumpStyle=none;entryX=0.5;entryY=1;entryDx=0;entryDy=0;edgeStyle=orthogonalEdgeStyle;rounded=1;" edge="1" parent="1">
                    <mxGeometry width="50" height="50" relative="1" as="geometry">
                        <mxPoint x="779.7900000000002" y="960.0000000000005" as="sourcePoint"/>
                        <mxPoint x="754.7900000000002" y="930.0000000000005" as="targetPoint"/>
                    </mxGeometry>
                </mxCell>
                <mxCell id="808" value="" style="endArrow=none;html=1;fontSize=24;curved=1;jumpStyle=none;entryX=0.5;entryY=1;entryDx=0;entryDy=0;edgeStyle=orthogonalEdgeStyle;rounded=1;" edge="1" parent="1">
                    <mxGeometry width="50" height="50" relative="1" as="geometry">
                        <mxPoint x="739.7900000000002" y="960.0000000000005" as="sourcePoint"/>
                        <mxPoint x="714.7900000000002" y="930.0000000000005" as="targetPoint"/>
                    </mxGeometry>
                </mxCell>
                <mxCell id="809" value="" style="endArrow=none;html=1;fontSize=24;curved=1;jumpStyle=none;entryX=0.5;entryY=1;entryDx=0;entryDy=0;edgeStyle=orthogonalEdgeStyle;rounded=1;" edge="1" parent="1">
                    <mxGeometry width="50" height="50" relative="1" as="geometry">
                        <mxPoint x="699.7900000000002" y="960.0000000000005" as="sourcePoint"/>
                        <mxPoint x="674.7900000000002" y="930.0000000000005" as="targetPoint"/>
                        <Array as="points">
                            <mxPoint x="674.7900000000002" y="960"/>
                        </Array>
                    </mxGeometry>
                </mxCell>
                <mxCell id="810" value="" style="endArrow=none;html=1;fontSize=24;curved=1;jumpStyle=none;edgeStyle=orthogonalEdgeStyle;rounded=1;" edge="1" parent="1">
                    <mxGeometry width="50" height="50" relative="1" as="geometry">
                        <mxPoint x="1079.7900000000002" y="960" as="sourcePoint"/>
                        <mxPoint x="1109.7900000000002" y="990" as="targetPoint"/>
                    </mxGeometry>
                </mxCell>
                <mxCell id="811" value="" style="endArrow=none;html=1;fontSize=24;jumpStyle=none;edgeStyle=orthogonalEdgeStyle;curved=1;rounded=1;" edge="1" parent="1">
                    <mxGeometry width="50" height="50" relative="1" as="geometry">
                        <mxPoint x="639.7900000000002" y="880" as="sourcePoint"/>
                        <mxPoint x="609.7900000000002" y="850" as="targetPoint"/>
                    </mxGeometry>
                </mxCell>
                <mxCell id="812" value="" style="endArrow=none;html=1;fontSize=24;rounded=1;" edge="1" parent="1">
                    <mxGeometry width="50" height="50" relative="1" as="geometry">
                        <mxPoint x="699.76" y="1130" as="sourcePoint"/>
                        <mxPoint x="1170" y="1130" as="targetPoint"/>
                    </mxGeometry>
                </mxCell>
                <mxCell id="813" value="" style="endArrow=none;html=1;fontSize=24;rounded=1;" edge="1" parent="1">
                    <mxGeometry width="50" height="50" relative="1" as="geometry">
                        <mxPoint x="639.7900000000002" y="1050" as="sourcePoint"/>
                        <mxPoint x="699.76" y="1050" as="targetPoint"/>
                    </mxGeometry>
                </mxCell>
                <mxCell id="814" value="" style="endArrow=none;html=1;fontSize=24;jumpStyle=none;entryX=0.5;entryY=0;entryDx=0;entryDy=0;edgeStyle=orthogonalEdgeStyle;curved=1;rounded=1;" edge="1" parent="1">
                    <mxGeometry width="50" height="50" relative="1" as="geometry">
                        <mxPoint x="652.2900000000002" y="1050.0000000000005" as="sourcePoint"/>
                        <mxPoint x="677.2900000000002" y="1070.0000000000005" as="targetPoint"/>
                    </mxGeometry>
                </mxCell>
                <mxCell id="815" value="" style="endArrow=none;html=1;fontSize=24;jumpStyle=none;entryX=0.5;entryY=0;entryDx=0;entryDy=0;edgeStyle=orthogonalEdgeStyle;curved=1;rounded=1;" edge="1" parent="1">
                    <mxGeometry width="50" height="50" relative="1" as="geometry">
                        <mxPoint x="692.2900000000002" y="1050.0000000000005" as="sourcePoint"/>
                        <mxPoint x="717.2900000000002" y="1070.0000000000005" as="targetPoint"/>
                    </mxGeometry>
                </mxCell>
                <mxCell id="816" value="" style="endArrow=none;html=1;fontSize=24;curved=1;jumpStyle=none;entryX=0.5;entryY=1;entryDx=0;entryDy=0;edgeStyle=orthogonalEdgeStyle;rounded=1;" edge="1" parent="1">
                    <mxGeometry width="50" height="50" relative="1" as="geometry">
                        <mxPoint x="739.7900000000002" y="1130.0000000000005" as="sourcePoint"/>
                        <mxPoint x="714.7900000000002" y="1100.0000000000005" as="targetPoint"/>
                    </mxGeometry>
                </mxCell>
                <mxCell id="817" value="" style="endArrow=none;html=1;fontSize=24;curved=1;jumpStyle=none;entryX=0.5;entryY=1;entryDx=0;entryDy=0;edgeStyle=orthogonalEdgeStyle;rounded=1;" edge="1" parent="1">
                    <mxGeometry width="50" height="50" relative="1" as="geometry">
                        <mxPoint x="699.7900000000002" y="1130.0000000000005" as="sourcePoint"/>
                        <mxPoint x="674.7900000000002" y="1100.0000000000005" as="targetPoint"/>
                        <Array as="points">
                            <mxPoint x="674.7900000000002" y="1130"/>
                        </Array>
                    </mxGeometry>
                </mxCell>
                <mxCell id="818" value="" style="endArrow=none;html=1;fontSize=24;jumpStyle=none;edgeStyle=orthogonalEdgeStyle;curved=1;rounded=1;" edge="1" parent="1">
                    <mxGeometry width="50" height="50" relative="1" as="geometry">
                        <mxPoint x="639.7900000000002" y="1050" as="sourcePoint"/>
                        <mxPoint x="609.7900000000002" y="1020" as="targetPoint"/>
                    </mxGeometry>
                </mxCell>
                <mxCell id="819" value="" style="endArrow=none;html=1;fontSize=24;curved=1;jumpStyle=none;edgeStyle=orthogonalEdgeStyle;rounded=1;" edge="1" parent="1">
                    <mxGeometry width="50" height="50" relative="1" as="geometry">
                        <mxPoint x="1139.76" y="1130" as="sourcePoint"/>
                        <mxPoint x="1109.76" y="1090" as="targetPoint"/>
                    </mxGeometry>
                </mxCell>
                <mxCell id="820" value="0" style="ellipse;whiteSpace=wrap;html=1;aspect=fixed;fillStyle=auto;rounded=1;" vertex="1" parent="1">
                    <mxGeometry x="1405.24" y="360" width="30" height="30" as="geometry"/>
                </mxCell>
                <mxCell id="821" value="1" style="ellipse;whiteSpace=wrap;html=1;aspect=fixed;fillStyle=auto;rounded=1;" vertex="1" parent="1">
                    <mxGeometry x="1445.24" y="360" width="30" height="30" as="geometry"/>
                </mxCell>
                <mxCell id="822" value="2" style="ellipse;whiteSpace=wrap;html=1;aspect=fixed;fillStyle=auto;rounded=1;" vertex="1" parent="1">
                    <mxGeometry x="1485.24" y="360" width="30" height="30" as="geometry"/>
                </mxCell>
                <mxCell id="823" value="3" style="ellipse;whiteSpace=wrap;html=1;aspect=fixed;fillStyle=auto;rounded=1;" vertex="1" parent="1">
                    <mxGeometry x="1525.24" y="360" width="30" height="30" as="geometry"/>
                </mxCell>
                <mxCell id="824" value="4" style="ellipse;whiteSpace=wrap;html=1;aspect=fixed;fillStyle=auto;rounded=1;" vertex="1" parent="1">
                    <mxGeometry x="1565.24" y="360" width="30" height="30" as="geometry"/>
                </mxCell>
                <mxCell id="825" value="5" style="ellipse;whiteSpace=wrap;html=1;aspect=fixed;fillStyle=auto;rounded=1;" vertex="1" parent="1">
                    <mxGeometry x="1605.24" y="360" width="30" height="30" as="geometry"/>
                </mxCell>
                <mxCell id="826" value="6" style="ellipse;whiteSpace=wrap;html=1;aspect=fixed;fillStyle=auto;rounded=1;" vertex="1" parent="1">
                    <mxGeometry x="1645.24" y="360" width="30" height="30" as="geometry"/>
                </mxCell>
                <mxCell id="827" value="7" style="ellipse;whiteSpace=wrap;html=1;aspect=fixed;fillStyle=auto;rounded=1;" vertex="1" parent="1">
                    <mxGeometry x="1685.24" y="360" width="30" height="30" as="geometry"/>
                </mxCell>
                <mxCell id="828" value="8" style="ellipse;whiteSpace=wrap;html=1;aspect=fixed;fillStyle=auto;rounded=1;" vertex="1" parent="1">
                    <mxGeometry x="1725.24" y="360" width="30" height="30" as="geometry"/>
                </mxCell>
                <mxCell id="829" value="9" style="ellipse;whiteSpace=wrap;html=1;aspect=fixed;fillStyle=auto;rounded=1;" vertex="1" parent="1">
                    <mxGeometry x="1765.24" y="360" width="30" height="30" as="geometry"/>
                </mxCell>
                <mxCell id="830" value="" style="endArrow=none;html=1;fontSize=24;jumpStyle=none;curved=1;rounded=1;" edge="1" parent="1">
                    <mxGeometry width="50" height="50" relative="1" as="geometry">
                        <mxPoint x="1375.24" y="340" as="sourcePoint"/>
                        <mxPoint x="1994" y="339" as="targetPoint"/>
                    </mxGeometry>
                </mxCell>
                <mxCell id="831" value="" style="endArrow=none;html=1;fontSize=24;jumpStyle=none;entryX=0.5;entryY=0;entryDx=0;entryDy=0;edgeStyle=orthogonalEdgeStyle;curved=1;rounded=1;" edge="1" parent="1" target="829">
                    <mxGeometry width="50" height="50" relative="1" as="geometry">
                        <mxPoint x="1755.24" y="340" as="sourcePoint"/>
                        <mxPoint x="1775.24" y="390" as="targetPoint"/>
                    </mxGeometry>
                </mxCell>
                <mxCell id="832" value="" style="endArrow=none;html=1;fontSize=24;curved=1;jumpStyle=none;entryX=0.5;entryY=1;entryDx=0;entryDy=0;edgeStyle=orthogonalEdgeStyle;rounded=1;" edge="1" parent="1" target="829">
                    <mxGeometry width="50" height="50" relative="1" as="geometry">
                        <mxPoint x="1805.24" y="420" as="sourcePoint"/>
                        <mxPoint x="1775.24" y="390" as="targetPoint"/>
                    </mxGeometry>
                </mxCell>
                <mxCell id="833" value="" style="endArrow=none;html=1;fontSize=24;jumpStyle=none;entryX=0.5;entryY=0;entryDx=0;entryDy=0;edgeStyle=orthogonalEdgeStyle;curved=1;rounded=1;" edge="1" parent="1">
                    <mxGeometry width="50" height="50" relative="1" as="geometry">
                        <mxPoint x="1715.24" y="340" as="sourcePoint"/>
                        <mxPoint x="1740.24" y="360" as="targetPoint"/>
                    </mxGeometry>
                </mxCell>
                <mxCell id="834" value="" style="endArrow=none;html=1;fontSize=24;jumpStyle=none;entryX=0.5;entryY=0;entryDx=0;entryDy=0;edgeStyle=orthogonalEdgeStyle;curved=1;rounded=1;" edge="1" parent="1">
                    <mxGeometry width="50" height="50" relative="1" as="geometry">
                        <mxPoint x="1675.24" y="340" as="sourcePoint"/>
                        <mxPoint x="1700.24" y="360" as="targetPoint"/>
                    </mxGeometry>
                </mxCell>
                <mxCell id="835" value="" style="endArrow=none;html=1;fontSize=24;jumpStyle=none;entryX=0.5;entryY=0;entryDx=0;entryDy=0;edgeStyle=orthogonalEdgeStyle;curved=1;rounded=1;" edge="1" parent="1">
                    <mxGeometry width="50" height="50" relative="1" as="geometry">
                        <mxPoint x="1635.24" y="340" as="sourcePoint"/>
                        <mxPoint x="1660.24" y="360" as="targetPoint"/>
                    </mxGeometry>
                </mxCell>
                <mxCell id="836" value="" style="endArrow=none;html=1;fontSize=24;jumpStyle=none;entryX=0.5;entryY=0;entryDx=0;entryDy=0;edgeStyle=orthogonalEdgeStyle;curved=1;rounded=1;" edge="1" parent="1">
                    <mxGeometry width="50" height="50" relative="1" as="geometry">
                        <mxPoint x="1595.24" y="340" as="sourcePoint"/>
                        <mxPoint x="1620.24" y="360" as="targetPoint"/>
                    </mxGeometry>
                </mxCell>
                <mxCell id="837" value="" style="endArrow=none;html=1;fontSize=24;jumpStyle=none;entryX=0.5;entryY=0;entryDx=0;entryDy=0;edgeStyle=orthogonalEdgeStyle;curved=1;rounded=1;" edge="1" parent="1">
                    <mxGeometry width="50" height="50" relative="1" as="geometry">
                        <mxPoint x="1555.24" y="340" as="sourcePoint"/>
                        <mxPoint x="1580.24" y="360" as="targetPoint"/>
                    </mxGeometry>
                </mxCell>
                <mxCell id="838" value="" style="endArrow=none;html=1;fontSize=24;jumpStyle=none;entryX=0.5;entryY=0;entryDx=0;entryDy=0;edgeStyle=orthogonalEdgeStyle;curved=1;rounded=1;" edge="1" parent="1">
                    <mxGeometry width="50" height="50" relative="1" as="geometry">
                        <mxPoint x="1515.24" y="340" as="sourcePoint"/>
                        <mxPoint x="1540.24" y="360" as="targetPoint"/>
                    </mxGeometry>
                </mxCell>
                <mxCell id="839" value="" style="endArrow=none;html=1;fontSize=24;jumpStyle=none;entryX=0.5;entryY=0;entryDx=0;entryDy=0;edgeStyle=orthogonalEdgeStyle;curved=1;rounded=1;" edge="1" parent="1">
                    <mxGeometry width="50" height="50" relative="1" as="geometry">
                        <mxPoint x="1475.24" y="340" as="sourcePoint"/>
                        <mxPoint x="1500.24" y="360" as="targetPoint"/>
                    </mxGeometry>
                </mxCell>
                <mxCell id="840" value="" style="endArrow=none;html=1;fontSize=24;jumpStyle=none;entryX=0.5;entryY=0;entryDx=0;entryDy=0;edgeStyle=orthogonalEdgeStyle;curved=1;rounded=1;" edge="1" parent="1">
                    <mxGeometry width="50" height="50" relative="1" as="geometry">
                        <mxPoint x="1435.24" y="340" as="sourcePoint"/>
                        <mxPoint x="1460.24" y="360" as="targetPoint"/>
                    </mxGeometry>
                </mxCell>
                <mxCell id="841" value="" style="endArrow=none;html=1;fontSize=24;jumpStyle=none;entryX=0.5;entryY=0;entryDx=0;entryDy=0;edgeStyle=orthogonalEdgeStyle;curved=1;rounded=1;" edge="1" parent="1">
                    <mxGeometry width="50" height="50" relative="1" as="geometry">
                        <mxPoint x="1395.24" y="340" as="sourcePoint"/>
                        <mxPoint x="1420.24" y="360" as="targetPoint"/>
                    </mxGeometry>
                </mxCell>
                <mxCell id="842" value="" style="endArrow=none;html=1;fontSize=24;curved=1;jumpStyle=none;entryX=0.5;entryY=1;entryDx=0;entryDy=0;edgeStyle=orthogonalEdgeStyle;rounded=1;" edge="1" parent="1">
                    <mxGeometry width="50" height="50" relative="1" as="geometry">
                        <mxPoint x="1765.24" y="420" as="sourcePoint"/>
                        <mxPoint x="1740.24" y="390" as="targetPoint"/>
                    </mxGeometry>
                </mxCell>
                <mxCell id="843" value="" style="endArrow=none;html=1;fontSize=24;curved=1;jumpStyle=none;entryX=0.5;entryY=1;entryDx=0;entryDy=0;edgeStyle=orthogonalEdgeStyle;rounded=1;" edge="1" parent="1">
                    <mxGeometry width="50" height="50" relative="1" as="geometry">
                        <mxPoint x="1725.24" y="420" as="sourcePoint"/>
                        <mxPoint x="1700.24" y="390" as="targetPoint"/>
                    </mxGeometry>
                </mxCell>
                <mxCell id="844" value="" style="endArrow=none;html=1;fontSize=24;curved=1;jumpStyle=none;entryX=0.5;entryY=1;entryDx=0;entryDy=0;edgeStyle=orthogonalEdgeStyle;rounded=1;" edge="1" parent="1">
                    <mxGeometry width="50" height="50" relative="1" as="geometry">
                        <mxPoint x="1685.24" y="420" as="sourcePoint"/>
                        <mxPoint x="1660.24" y="390" as="targetPoint"/>
                    </mxGeometry>
                </mxCell>
                <mxCell id="845" value="" style="endArrow=none;html=1;fontSize=24;curved=1;jumpStyle=none;entryX=0.5;entryY=1;entryDx=0;entryDy=0;edgeStyle=orthogonalEdgeStyle;rounded=1;" edge="1" parent="1">
                    <mxGeometry width="50" height="50" relative="1" as="geometry">
                        <mxPoint x="1645.24" y="420" as="sourcePoint"/>
                        <mxPoint x="1620.24" y="390" as="targetPoint"/>
                    </mxGeometry>
                </mxCell>
                <mxCell id="846" value="" style="endArrow=none;html=1;fontSize=24;curved=1;jumpStyle=none;entryX=0.5;entryY=1;entryDx=0;entryDy=0;edgeStyle=orthogonalEdgeStyle;rounded=1;" edge="1" parent="1">
                    <mxGeometry width="50" height="50" relative="1" as="geometry">
                        <mxPoint x="1605.24" y="420" as="sourcePoint"/>
                        <mxPoint x="1580.24" y="390" as="targetPoint"/>
                    </mxGeometry>
                </mxCell>
                <mxCell id="847" value="" style="endArrow=none;html=1;fontSize=24;curved=1;jumpStyle=none;entryX=0.5;entryY=1;entryDx=0;entryDy=0;edgeStyle=orthogonalEdgeStyle;rounded=1;" edge="1" parent="1">
                    <mxGeometry width="50" height="50" relative="1" as="geometry">
                        <mxPoint x="1565.24" y="420" as="sourcePoint"/>
                        <mxPoint x="1540.24" y="390" as="targetPoint"/>
                    </mxGeometry>
                </mxCell>
                <mxCell id="848" value="" style="endArrow=none;html=1;fontSize=24;curved=1;jumpStyle=none;entryX=0.5;entryY=1;entryDx=0;entryDy=0;edgeStyle=orthogonalEdgeStyle;rounded=1;" edge="1" parent="1">
                    <mxGeometry width="50" height="50" relative="1" as="geometry">
                        <mxPoint x="1525.24" y="420" as="sourcePoint"/>
                        <mxPoint x="1500.24" y="390" as="targetPoint"/>
                    </mxGeometry>
                </mxCell>
                <mxCell id="849" value="" style="endArrow=none;html=1;fontSize=24;curved=1;jumpStyle=none;entryX=0.5;entryY=1;entryDx=0;entryDy=0;edgeStyle=orthogonalEdgeStyle;rounded=1;" edge="1" parent="1">
                    <mxGeometry width="50" height="50" relative="1" as="geometry">
                        <mxPoint x="1485.24" y="420" as="sourcePoint"/>
                        <mxPoint x="1460.24" y="390" as="targetPoint"/>
                    </mxGeometry>
                </mxCell>
                <mxCell id="850" value="" style="endArrow=none;html=1;fontSize=24;curved=1;jumpStyle=none;entryX=0.5;entryY=1;entryDx=0;entryDy=0;edgeStyle=orthogonalEdgeStyle;rounded=1;" edge="1" parent="1">
                    <mxGeometry width="50" height="50" relative="1" as="geometry">
                        <mxPoint x="1445.24" y="420" as="sourcePoint"/>
                        <mxPoint x="1420.24" y="390" as="targetPoint"/>
                        <Array as="points">
                            <mxPoint x="1420.24" y="420"/>
                        </Array>
                    </mxGeometry>
                </mxCell>
                <mxCell id="851" value="" style="endArrow=none;html=1;fontSize=24;rounded=1;" edge="1" parent="1">
                    <mxGeometry width="50" height="50" relative="1" as="geometry">
                        <mxPoint x="1444.7699999999998" y="420" as="sourcePoint"/>
                        <mxPoint x="2058" y="420" as="targetPoint"/>
                    </mxGeometry>
                </mxCell>
                <mxCell id="852" value="" style="endArrow=none;html=1;fontSize=24;jumpStyle=none;entryX=0.5;entryY=0;entryDx=0;entryDy=0;edgeStyle=orthogonalEdgeStyle;curved=1;rounded=1;" edge="1" parent="1">
                    <mxGeometry width="50" height="50" relative="1" as="geometry">
                        <mxPoint x="1395.24" y="340.00000000000045" as="sourcePoint"/>
                        <mxPoint x="1420.24" y="360.00000000000045" as="targetPoint"/>
                    </mxGeometry>
                </mxCell>
                <mxCell id="853" value="" style="endArrow=none;html=1;fontSize=24;jumpStyle=none;entryX=0.5;entryY=0;entryDx=0;entryDy=0;edgeStyle=orthogonalEdgeStyle;curved=1;rounded=1;" edge="1" parent="1">
                    <mxGeometry width="50" height="50" relative="1" as="geometry">
                        <mxPoint x="1435.24" y="340.00000000000045" as="sourcePoint"/>
                        <mxPoint x="1460.24" y="360.00000000000045" as="targetPoint"/>
                    </mxGeometry>
                </mxCell>
                <mxCell id="854" value="" style="endArrow=none;html=1;fontSize=24;jumpStyle=none;entryX=0.5;entryY=0;entryDx=0;entryDy=0;edgeStyle=orthogonalEdgeStyle;curved=1;rounded=1;" edge="1" parent="1">
                    <mxGeometry width="50" height="50" relative="1" as="geometry">
                        <mxPoint x="1475.24" y="340.00000000000045" as="sourcePoint"/>
                        <mxPoint x="1500.24" y="360.00000000000045" as="targetPoint"/>
                    </mxGeometry>
                </mxCell>
                <mxCell id="855" value="" style="endArrow=none;html=1;fontSize=24;jumpStyle=none;entryX=0.5;entryY=0;entryDx=0;entryDy=0;edgeStyle=orthogonalEdgeStyle;curved=1;rounded=1;" edge="1" parent="1">
                    <mxGeometry width="50" height="50" relative="1" as="geometry">
                        <mxPoint x="1515.24" y="340.00000000000045" as="sourcePoint"/>
                        <mxPoint x="1540.24" y="360.00000000000045" as="targetPoint"/>
                    </mxGeometry>
                </mxCell>
                <mxCell id="856" value="" style="endArrow=none;html=1;fontSize=24;jumpStyle=none;entryX=0.5;entryY=0;entryDx=0;entryDy=0;edgeStyle=orthogonalEdgeStyle;curved=1;rounded=1;" edge="1" parent="1">
                    <mxGeometry width="50" height="50" relative="1" as="geometry">
                        <mxPoint x="1555.24" y="340.00000000000045" as="sourcePoint"/>
                        <mxPoint x="1580.24" y="360.00000000000045" as="targetPoint"/>
                    </mxGeometry>
                </mxCell>
                <mxCell id="857" value="" style="endArrow=none;html=1;fontSize=24;jumpStyle=none;entryX=0.5;entryY=0;entryDx=0;entryDy=0;edgeStyle=orthogonalEdgeStyle;curved=1;rounded=1;" edge="1" parent="1">
                    <mxGeometry width="50" height="50" relative="1" as="geometry">
                        <mxPoint x="1595.24" y="340.00000000000045" as="sourcePoint"/>
                        <mxPoint x="1620.24" y="360.00000000000045" as="targetPoint"/>
                    </mxGeometry>
                </mxCell>
                <mxCell id="858" value="" style="endArrow=none;html=1;fontSize=24;jumpStyle=none;entryX=0.5;entryY=0;entryDx=0;entryDy=0;edgeStyle=orthogonalEdgeStyle;curved=1;rounded=1;" edge="1" parent="1">
                    <mxGeometry width="50" height="50" relative="1" as="geometry">
                        <mxPoint x="1635.24" y="340.00000000000045" as="sourcePoint"/>
                        <mxPoint x="1660.24" y="360.00000000000045" as="targetPoint"/>
                    </mxGeometry>
                </mxCell>
                <mxCell id="859" value="" style="endArrow=none;html=1;fontSize=24;jumpStyle=none;entryX=0.5;entryY=0;entryDx=0;entryDy=0;edgeStyle=orthogonalEdgeStyle;curved=1;rounded=1;" edge="1" parent="1">
                    <mxGeometry width="50" height="50" relative="1" as="geometry">
                        <mxPoint x="1675.24" y="340.00000000000045" as="sourcePoint"/>
                        <mxPoint x="1700.24" y="360.00000000000045" as="targetPoint"/>
                    </mxGeometry>
                </mxCell>
                <mxCell id="860" value="" style="endArrow=none;html=1;fontSize=24;jumpStyle=none;entryX=0.5;entryY=0;entryDx=0;entryDy=0;edgeStyle=orthogonalEdgeStyle;curved=1;rounded=1;" edge="1" parent="1">
                    <mxGeometry width="50" height="50" relative="1" as="geometry">
                        <mxPoint x="1715.24" y="340.00000000000045" as="sourcePoint"/>
                        <mxPoint x="1740.24" y="360.00000000000045" as="targetPoint"/>
                    </mxGeometry>
                </mxCell>
                <mxCell id="861" value="" style="endArrow=none;html=1;fontSize=24;jumpStyle=none;entryX=0.5;entryY=0;entryDx=0;entryDy=0;edgeStyle=orthogonalEdgeStyle;curved=1;rounded=1;" edge="1" parent="1">
                    <mxGeometry width="50" height="50" relative="1" as="geometry">
                        <mxPoint x="1395.24" y="340.00000000000045" as="sourcePoint"/>
                        <mxPoint x="1420.24" y="360.00000000000045" as="targetPoint"/>
                    </mxGeometry>
                </mxCell>
                <mxCell id="862" value="" style="endArrow=none;html=1;fontSize=24;jumpStyle=none;entryX=0.5;entryY=0;entryDx=0;entryDy=0;edgeStyle=orthogonalEdgeStyle;curved=1;rounded=1;" edge="1" parent="1">
                    <mxGeometry width="50" height="50" relative="1" as="geometry">
                        <mxPoint x="1435.24" y="340.00000000000045" as="sourcePoint"/>
                        <mxPoint x="1460.24" y="360.00000000000045" as="targetPoint"/>
                    </mxGeometry>
                </mxCell>
                <mxCell id="863" value="" style="endArrow=none;html=1;fontSize=24;jumpStyle=none;entryX=0.5;entryY=0;entryDx=0;entryDy=0;edgeStyle=orthogonalEdgeStyle;curved=1;rounded=1;" edge="1" parent="1">
                    <mxGeometry width="50" height="50" relative="1" as="geometry">
                        <mxPoint x="1475.24" y="340.00000000000045" as="sourcePoint"/>
                        <mxPoint x="1500.24" y="360.00000000000045" as="targetPoint"/>
                    </mxGeometry>
                </mxCell>
                <mxCell id="864" value="" style="endArrow=none;html=1;fontSize=24;jumpStyle=none;entryX=0.5;entryY=0;entryDx=0;entryDy=0;edgeStyle=orthogonalEdgeStyle;curved=1;rounded=1;" edge="1" parent="1">
                    <mxGeometry width="50" height="50" relative="1" as="geometry">
                        <mxPoint x="1515.24" y="340.00000000000045" as="sourcePoint"/>
                        <mxPoint x="1540.24" y="360.00000000000045" as="targetPoint"/>
                    </mxGeometry>
                </mxCell>
                <mxCell id="865" value="" style="endArrow=none;html=1;fontSize=24;jumpStyle=none;entryX=0.5;entryY=0;entryDx=0;entryDy=0;edgeStyle=orthogonalEdgeStyle;curved=1;rounded=1;" edge="1" parent="1">
                    <mxGeometry width="50" height="50" relative="1" as="geometry">
                        <mxPoint x="1555.24" y="340.00000000000045" as="sourcePoint"/>
                        <mxPoint x="1580.24" y="360.00000000000045" as="targetPoint"/>
                    </mxGeometry>
                </mxCell>
                <mxCell id="866" value="" style="endArrow=none;html=1;fontSize=24;jumpStyle=none;entryX=0.5;entryY=0;entryDx=0;entryDy=0;edgeStyle=orthogonalEdgeStyle;curved=1;rounded=1;" edge="1" parent="1">
                    <mxGeometry width="50" height="50" relative="1" as="geometry">
                        <mxPoint x="1595.24" y="340.00000000000045" as="sourcePoint"/>
                        <mxPoint x="1620.24" y="360.00000000000045" as="targetPoint"/>
                    </mxGeometry>
                </mxCell>
                <mxCell id="867" value="" style="endArrow=none;html=1;fontSize=24;jumpStyle=none;entryX=0.5;entryY=0;entryDx=0;entryDy=0;edgeStyle=orthogonalEdgeStyle;curved=1;rounded=1;" edge="1" parent="1">
                    <mxGeometry width="50" height="50" relative="1" as="geometry">
                        <mxPoint x="1635.24" y="340.00000000000045" as="sourcePoint"/>
                        <mxPoint x="1660.24" y="360.00000000000045" as="targetPoint"/>
                    </mxGeometry>
                </mxCell>
                <mxCell id="868" value="" style="endArrow=none;html=1;fontSize=24;jumpStyle=none;entryX=0.5;entryY=0;entryDx=0;entryDy=0;edgeStyle=orthogonalEdgeStyle;curved=1;rounded=1;" edge="1" parent="1">
                    <mxGeometry width="50" height="50" relative="1" as="geometry">
                        <mxPoint x="1675.24" y="340.00000000000045" as="sourcePoint"/>
                        <mxPoint x="1700.24" y="360.00000000000045" as="targetPoint"/>
                    </mxGeometry>
                </mxCell>
                <mxCell id="869" value="" style="endArrow=none;html=1;fontSize=24;jumpStyle=none;entryX=0.5;entryY=0;entryDx=0;entryDy=0;edgeStyle=orthogonalEdgeStyle;curved=1;rounded=1;" edge="1" parent="1">
                    <mxGeometry width="50" height="50" relative="1" as="geometry">
                        <mxPoint x="1715.24" y="340.00000000000045" as="sourcePoint"/>
                        <mxPoint x="1740.24" y="360.00000000000045" as="targetPoint"/>
                    </mxGeometry>
                </mxCell>
                <mxCell id="870" value="Буквы" style="swimlane;whiteSpace=wrap;html=1;rounded=0;strokeWidth=3;fontSize=50;fillColor=none;startSize=70;" vertex="1" parent="1">
                    <mxGeometry x="499.9999999999998" y="250" width="700" height="920" as="geometry"/>
                </mxCell>
                <mxCell id="871" value="$ буква = &quot;A&quot;|&quot;B&quot;|&quot;C&quot;|&quot;D&quot;|&quot;E&quot;|&quot;F&quot;|&quot;G&quot;|&quot;H&quot;|&quot;I&quot;|&quot;J&quot;|&quot;K&quot;|&quot;L&quot;|&quot;M&quot;|&quot;N&quot;|&quot;O&quot;|&quot;P&quot;|&quot;Q&quot;|&quot;R&quot;|&quot;S&quot;|&quot;T&quot;|&quot;U&quot;|&quot;V&quot;|&quot;W&quot;|&quot;X&quot;|&quot;Y&quot;|&quot;Z&quot;|&quot;a&quot;|&quot;b&quot;|&quot;c&quot;|&quot;d&quot;|&quot;e&quot;|&quot;f&quot;|&quot;g&quot;|&quot;h&quot;|&quot;i&quot;|&quot;j&quot;|&quot;k&quot;|&quot;l&quot;|&quot;m&quot;|&quot;n&quot;|&quot;o&quot;|&quot;p&quot;|&quot;q&quot;|&quot;r&quot;|&quot;s&quot;|&quot;t&quot;|&quot;u&quot;|&quot;v&quot;|&quot;w&quot;|&quot;x&quot;|&quot;y&quot;|&quot;z&quot;." style="text;html=1;align=center;verticalAlign=middle;resizable=0;points=[];autosize=1;strokeColor=none;fillColor=none;fontSize=5;fontStyle=2" vertex="1" parent="870">
                    <mxGeometry x="119.76000000000022" y="900" width="450" height="20" as="geometry"/>
                </mxCell>
                <mxCell id="872" value="Команда" style="swimlane;whiteSpace=wrap;html=1;rounded=0;strokeWidth=3;fontSize=50;fillColor=none;startSize=70;" vertex="1" parent="1">
                    <mxGeometry x="1290.0000000000002" y="520" width="300" height="220" as="geometry"/>
                </mxCell>
                <mxCell id="873" value="+" style="ellipse;whiteSpace=wrap;html=1;aspect=fixed;fillStyle=auto;rounded=1;" vertex="1" parent="872">
                    <mxGeometry x="80" y="109.19999999999982" width="30" height="30" as="geometry"/>
                </mxCell>
                <mxCell id="874" value="SUB" style="ellipse;whiteSpace=wrap;html=1;aspect=fixed;fillStyle=auto;rounded=1;" vertex="1" parent="872">
                    <mxGeometry x="120" y="109.19999999999982" width="30" height="30" as="geometry"/>
                </mxCell>
                <mxCell id="875" value="AND" style="ellipse;whiteSpace=wrap;html=1;aspect=fixed;fillStyle=auto;rounded=1;" vertex="1" parent="872">
                    <mxGeometry x="160" y="109.19999999999982" width="30" height="30" as="geometry"/>
                </mxCell>
                <mxCell id="876" value="CMP" style="ellipse;whiteSpace=wrap;html=1;aspect=fixed;fillStyle=auto;rounded=1;" vertex="1" parent="872">
                    <mxGeometry x="200" y="109.19999999999982" width="30" height="30" as="geometry"/>
                </mxCell>
                <mxCell id="877" value="" style="endArrow=none;html=1;fontSize=24;jumpStyle=none;curved=1;rounded=1;" edge="1" parent="872">
                    <mxGeometry width="50" height="50" relative="1" as="geometry">
                        <mxPoint x="50" y="89.19999999999982" as="sourcePoint"/>
                        <mxPoint x="190" y="89.19999999999982" as="targetPoint"/>
                    </mxGeometry>
                </mxCell>
                <mxCell id="878" value="" style="endArrow=none;html=1;fontSize=24;jumpStyle=none;entryX=0.5;entryY=0;entryDx=0;entryDy=0;edgeStyle=orthogonalEdgeStyle;curved=1;rounded=1;" edge="1" parent="872">
                    <mxGeometry width="50" height="50" relative="1" as="geometry">
                        <mxPoint x="190" y="89.19999999999982" as="sourcePoint"/>
                        <mxPoint x="215" y="109.19999999999982" as="targetPoint"/>
                    </mxGeometry>
                </mxCell>
                <mxCell id="879" value="" style="endArrow=none;html=1;fontSize=24;jumpStyle=none;entryX=0.5;entryY=0;entryDx=0;entryDy=0;edgeStyle=orthogonalEdgeStyle;curved=1;rounded=1;" edge="1" parent="872">
                    <mxGeometry width="50" height="50" relative="1" as="geometry">
                        <mxPoint x="150" y="89.19999999999982" as="sourcePoint"/>
                        <mxPoint x="175" y="109.19999999999982" as="targetPoint"/>
                    </mxGeometry>
                </mxCell>
                <mxCell id="880" value="" style="endArrow=none;html=1;fontSize=24;jumpStyle=none;entryX=0.5;entryY=0;entryDx=0;entryDy=0;edgeStyle=orthogonalEdgeStyle;curved=1;rounded=1;" edge="1" parent="872">
                    <mxGeometry width="50" height="50" relative="1" as="geometry">
                        <mxPoint x="110" y="89.19999999999982" as="sourcePoint"/>
                        <mxPoint x="135" y="109.19999999999982" as="targetPoint"/>
                    </mxGeometry>
                </mxCell>
                <mxCell id="881" value="" style="endArrow=none;html=1;fontSize=24;jumpStyle=none;entryX=0.5;entryY=0;entryDx=0;entryDy=0;edgeStyle=orthogonalEdgeStyle;curved=1;rounded=1;" edge="1" parent="872">
                    <mxGeometry width="50" height="50" relative="1" as="geometry">
                        <mxPoint x="70" y="89.19999999999982" as="sourcePoint"/>
                        <mxPoint x="95" y="109.19999999999982" as="targetPoint"/>
                    </mxGeometry>
                </mxCell>
                <mxCell id="882" value="" style="endArrow=none;html=1;fontSize=24;curved=1;jumpStyle=none;entryX=0.5;entryY=1;entryDx=0;entryDy=0;edgeStyle=orthogonalEdgeStyle;rounded=1;" edge="1" parent="872">
                    <mxGeometry width="50" height="50" relative="1" as="geometry">
                        <mxPoint x="240" y="169.19999999999982" as="sourcePoint"/>
                        <mxPoint x="215" y="139.19999999999982" as="targetPoint"/>
                    </mxGeometry>
                </mxCell>
                <mxCell id="883" value="" style="endArrow=none;html=1;fontSize=24;curved=1;jumpStyle=none;entryX=0.5;entryY=1;entryDx=0;entryDy=0;edgeStyle=orthogonalEdgeStyle;rounded=1;" edge="1" parent="872">
                    <mxGeometry width="50" height="50" relative="1" as="geometry">
                        <mxPoint x="200" y="169.19999999999982" as="sourcePoint"/>
                        <mxPoint x="175" y="139.19999999999982" as="targetPoint"/>
                    </mxGeometry>
                </mxCell>
                <mxCell id="884" value="" style="endArrow=none;html=1;fontSize=24;curved=1;jumpStyle=none;entryX=0.5;entryY=1;entryDx=0;entryDy=0;edgeStyle=orthogonalEdgeStyle;rounded=1;" edge="1" parent="872">
                    <mxGeometry width="50" height="50" relative="1" as="geometry">
                        <mxPoint x="160" y="169.19999999999982" as="sourcePoint"/>
                        <mxPoint x="135" y="139.19999999999982" as="targetPoint"/>
                    </mxGeometry>
                </mxCell>
                <mxCell id="885" value="" style="endArrow=none;html=1;fontSize=24;curved=1;jumpStyle=none;entryX=0.5;entryY=1;entryDx=0;entryDy=0;edgeStyle=orthogonalEdgeStyle;rounded=1;" edge="1" parent="872">
                    <mxGeometry width="50" height="50" relative="1" as="geometry">
                        <mxPoint x="120" y="169.19999999999982" as="sourcePoint"/>
                        <mxPoint x="95" y="139.19999999999982" as="targetPoint"/>
                        <Array as="points">
                            <mxPoint x="95" y="169.19999999999982"/>
                        </Array>
                    </mxGeometry>
                </mxCell>
                <mxCell id="886" value="" style="endArrow=none;html=1;fontSize=24;rounded=1;" edge="1" parent="872">
                    <mxGeometry width="50" height="50" relative="1" as="geometry">
                        <mxPoint x="119.52999999999975" y="169.19999999999982" as="sourcePoint"/>
                        <mxPoint x="280" y="169.19999999999982" as="targetPoint"/>
                    </mxGeometry>
                </mxCell>
                <mxCell id="887" value="$ команда= &quot;ADD&quot; | &quot;SUB&quot; | &quot;AND&quot; | &quot;CMP&quot;." style="text;whiteSpace=wrap;html=1;fontSize=5;" vertex="1" parent="872">
                    <mxGeometry x="100" y="190" width="110" height="20" as="geometry"/>
                </mxCell>
                <mxCell id="888" value="" style="endArrow=none;html=1;fontSize=24;jumpStyle=none;curved=1;rounded=1;" edge="1" parent="872">
                    <mxGeometry width="50" height="50" relative="1" as="geometry">
                        <mxPoint x="50" y="89.19999999999982" as="sourcePoint"/>
                        <mxPoint x="190" y="89.19999999999982" as="targetPoint"/>
                    </mxGeometry>
                </mxCell>
                <mxCell id="889" value="" style="endArrow=none;html=1;fontSize=24;jumpStyle=none;entryX=0.5;entryY=0;entryDx=0;entryDy=0;edgeStyle=orthogonalEdgeStyle;curved=1;rounded=1;" edge="1" parent="872">
                    <mxGeometry width="50" height="50" relative="1" as="geometry">
                        <mxPoint x="70" y="89.19999999999982" as="sourcePoint"/>
                        <mxPoint x="95" y="109.19999999999982" as="targetPoint"/>
                    </mxGeometry>
                </mxCell>
                <mxCell id="890" value="ADD" style="ellipse;whiteSpace=wrap;html=1;aspect=fixed;fillStyle=auto;rounded=1;" vertex="1" parent="872">
                    <mxGeometry x="80" y="109.19999999999982" width="30" height="30" as="geometry"/>
                </mxCell>
                <mxCell id="891" value="" style="endArrow=none;html=1;rounded=1;fontSize=5;" edge="1" parent="1" target="893">
                    <mxGeometry width="50" height="50" relative="1" as="geometry">
                        <mxPoint x="529.76" y="1355" as="sourcePoint"/>
                        <mxPoint x="589.76" y="1355" as="targetPoint"/>
                    </mxGeometry>
                </mxCell>
                <mxCell id="892" style="edgeStyle=none;rounded=1;html=1;exitX=1;exitY=0.5;exitDx=0;exitDy=0;fontSize=12;endArrow=none;endFill=0;strokeWidth=1;" edge="1" parent="1" source="893">
                    <mxGeometry relative="1" as="geometry">
                        <mxPoint x="809.76" y="1355" as="targetPoint"/>
                    </mxGeometry>
                </mxCell>
                <mxCell id="893" value="буква" style="rounded=0;whiteSpace=wrap;html=1;strokeWidth=1;fontSize=12;fillColor=none;glass=0;" vertex="1" parent="1">
                    <mxGeometry x="585.2399999999996" y="1345" width="49.76" height="20" as="geometry"/>
                </mxCell>
                <mxCell id="894" style="edgeStyle=orthogonalEdgeStyle;rounded=1;html=1;fontSize=12;endArrow=none;endFill=0;exitX=0;exitY=0.5;exitDx=0;exitDy=0;" edge="1" parent="1" source="895">
                    <mxGeometry relative="1" as="geometry">
                        <mxPoint x="719.76" y="1355" as="targetPoint"/>
                        <mxPoint x="709.76" y="1385" as="sourcePoint"/>
                        <Array as="points">
                            <mxPoint x="689.76" y="1385"/>
                            <mxPoint x="689.76" y="1355"/>
                        </Array>
                    </mxGeometry>
                </mxCell>
                <mxCell id="895" value="цифра" style="rounded=0;whiteSpace=wrap;html=1;strokeWidth=1;fontSize=12;fillColor=none;glass=0;" vertex="1" parent="1">
                    <mxGeometry x="705.2399999999996" y="1375" width="49.76" height="20" as="geometry"/>
                </mxCell>
                <mxCell id="896" value="буква" style="rounded=0;whiteSpace=wrap;html=1;strokeWidth=1;fontSize=12;fillColor=none;glass=0;" vertex="1" parent="1">
                    <mxGeometry x="704.9999999999998" y="1315" width="49.76" height="20" as="geometry"/>
                </mxCell>
                <mxCell id="897" style="edgeStyle=orthogonalEdgeStyle;rounded=1;html=1;fontSize=12;endArrow=none;endFill=0;exitX=0;exitY=0.5;exitDx=0;exitDy=0;" edge="1" parent="1" source="896">
                    <mxGeometry relative="1" as="geometry">
                        <mxPoint x="719.76" y="1355" as="targetPoint"/>
                        <mxPoint x="699.76" y="1325" as="sourcePoint"/>
                        <Array as="points">
                            <mxPoint x="689.76" y="1325"/>
                            <mxPoint x="689.76" y="1355"/>
                        </Array>
                    </mxGeometry>
                </mxCell>
                <mxCell id="898" style="edgeStyle=orthogonalEdgeStyle;rounded=1;html=1;fontSize=12;endArrow=none;endFill=0;entryX=1;entryY=0.5;entryDx=0;entryDy=0;" edge="1" parent="1" target="895">
                    <mxGeometry relative="1" as="geometry">
                        <mxPoint x="779.76" y="1385" as="targetPoint"/>
                        <mxPoint x="749.76" y="1355" as="sourcePoint"/>
                        <Array as="points">
                            <mxPoint x="769.76" y="1355"/>
                            <mxPoint x="769.76" y="1385"/>
                        </Array>
                    </mxGeometry>
                </mxCell>
                <mxCell id="899" style="edgeStyle=orthogonalEdgeStyle;rounded=1;html=1;fontSize=12;endArrow=none;endFill=0;entryX=1;entryY=0.5;entryDx=0;entryDy=0;" edge="1" parent="1" target="896">
                    <mxGeometry relative="1" as="geometry">
                        <mxPoint x="794.9999999999998" y="1325" as="targetPoint"/>
                        <mxPoint x="749.76" y="1355" as="sourcePoint"/>
                        <Array as="points">
                            <mxPoint x="769.76" y="1355"/>
                            <mxPoint x="769.76" y="1325"/>
                        </Array>
                    </mxGeometry>
                </mxCell>
                <mxCell id="900" value="&lt;font style=&quot;font-size: 30px;&quot;&gt;Идентификатор&lt;/font&gt;" style="swimlane;whiteSpace=wrap;html=1;rounded=0;glass=0;strokeWidth=1;fontSize=12;fillColor=none;startSize=40;" vertex="1" parent="1">
                    <mxGeometry x="509.76" y="1250" width="330" height="180" as="geometry"/>
                </mxCell>
                <mxCell id="901" value="$ идентификатор = буква {буква | цифра}." style="text;whiteSpace=wrap;html=1;fontSize=5;fontStyle=2" vertex="1" parent="900">
                    <mxGeometry x="100" y="160" width="110" height="20" as="geometry"/>
                </mxCell>
                <mxCell id="902" value="Цифры" style="swimlane;whiteSpace=wrap;html=1;rounded=0;strokeWidth=3;fontSize=50;fillColor=none;startSize=70;" vertex="1" parent="1">
                    <mxGeometry x="1290" y="250" width="818" height="210" as="geometry"/>
                </mxCell>
                <mxCell id="903" value="$ цифра = &quot;0&quot;|&quot;1&quot;|&quot;2&quot;|&quot;3&quot;|&quot;4&quot;|&quot;5&quot;|&quot;6&quot;|&quot;7&quot;|&quot;8&quot;|&quot;9&quot;|&quot;A&quot;|&quot;B&quot;|&quot;C&quot;|&quot;D&quot;|&quot;E&quot;|&quot;F&quot;." style="text;whiteSpace=wrap;html=1;fontSize=5;" vertex="1" parent="902">
                    <mxGeometry x="245.24" y="190" width="160.76" height="20" as="geometry"/>
                </mxCell>
                <mxCell id="1037" value="A" style="ellipse;whiteSpace=wrap;html=1;aspect=fixed;fillStyle=auto;rounded=1;" vertex="1" parent="902">
                    <mxGeometry x="514.76" y="110" width="30" height="30" as="geometry"/>
                </mxCell>
                <mxCell id="1038" value="B" style="ellipse;whiteSpace=wrap;html=1;aspect=fixed;fillStyle=auto;rounded=1;" vertex="1" parent="902">
                    <mxGeometry x="555" y="110" width="30" height="30" as="geometry"/>
                </mxCell>
                <mxCell id="1039" value="C" style="ellipse;whiteSpace=wrap;html=1;aspect=fixed;fillStyle=auto;rounded=1;" vertex="1" parent="902">
                    <mxGeometry x="595" y="110" width="30" height="30" as="geometry"/>
                </mxCell>
                <mxCell id="1040" value="D" style="ellipse;whiteSpace=wrap;html=1;aspect=fixed;fillStyle=auto;rounded=1;" vertex="1" parent="902">
                    <mxGeometry x="634" y="110" width="30" height="30" as="geometry"/>
                </mxCell>
                <mxCell id="1041" value="E" style="ellipse;whiteSpace=wrap;html=1;aspect=fixed;fillStyle=auto;rounded=1;" vertex="1" parent="902">
                    <mxGeometry x="673" y="110" width="30" height="30" as="geometry"/>
                </mxCell>
                <mxCell id="1042" value="F" style="ellipse;whiteSpace=wrap;html=1;aspect=fixed;fillStyle=auto;rounded=1;" vertex="1" parent="902">
                    <mxGeometry x="712" y="110" width="30" height="30" as="geometry"/>
                </mxCell>
                <mxCell id="1043" value="" style="endArrow=none;html=1;fontSize=24;jumpStyle=none;entryX=0.5;entryY=0;entryDx=0;entryDy=0;edgeStyle=orthogonalEdgeStyle;curved=1;rounded=1;" edge="1" parent="902">
                    <mxGeometry width="50" height="50" relative="1" as="geometry">
                        <mxPoint x="505.0000000000002" y="90" as="sourcePoint"/>
                        <mxPoint x="530.0000000000002" y="110" as="targetPoint"/>
                    </mxGeometry>
                </mxCell>
                <mxCell id="1044" value="" style="endArrow=none;html=1;fontSize=24;jumpStyle=none;entryX=0.5;entryY=0;entryDx=0;entryDy=0;edgeStyle=orthogonalEdgeStyle;curved=1;rounded=1;" edge="1" parent="902">
                    <mxGeometry width="50" height="50" relative="1" as="geometry">
                        <mxPoint x="544.7600000000004" y="90" as="sourcePoint"/>
                        <mxPoint x="569.7600000000004" y="110" as="targetPoint"/>
                    </mxGeometry>
                </mxCell>
                <mxCell id="1045" value="" style="endArrow=none;html=1;fontSize=24;jumpStyle=none;entryX=0.5;entryY=0;entryDx=0;entryDy=0;edgeStyle=orthogonalEdgeStyle;curved=1;rounded=1;" edge="1" parent="902">
                    <mxGeometry width="50" height="50" relative="1" as="geometry">
                        <mxPoint x="585.0000000000005" y="90" as="sourcePoint"/>
                        <mxPoint x="610.0000000000005" y="110" as="targetPoint"/>
                    </mxGeometry>
                </mxCell>
                <mxCell id="1046" value="" style="endArrow=none;html=1;fontSize=24;jumpStyle=none;entryX=0.5;entryY=0;entryDx=0;entryDy=0;edgeStyle=orthogonalEdgeStyle;curved=1;rounded=1;" edge="1" parent="902">
                    <mxGeometry width="50" height="50" relative="1" as="geometry">
                        <mxPoint x="625.0000000000005" y="90" as="sourcePoint"/>
                        <mxPoint x="650.0000000000005" y="110" as="targetPoint"/>
                    </mxGeometry>
                </mxCell>
                <mxCell id="1047" value="" style="endArrow=none;html=1;fontSize=24;jumpStyle=none;entryX=0.5;entryY=0;entryDx=0;entryDy=0;edgeStyle=orthogonalEdgeStyle;curved=1;rounded=1;" edge="1" parent="902">
                    <mxGeometry width="50" height="50" relative="1" as="geometry">
                        <mxPoint x="664" y="89" as="sourcePoint"/>
                        <mxPoint x="689.0000000000005" y="110" as="targetPoint"/>
                    </mxGeometry>
                </mxCell>
                <mxCell id="1048" value="" style="endArrow=none;html=1;fontSize=24;jumpStyle=none;entryX=0.5;entryY=0;entryDx=0;entryDy=0;edgeStyle=orthogonalEdgeStyle;curved=1;rounded=1;" edge="1" parent="902">
                    <mxGeometry width="50" height="50" relative="1" as="geometry">
                        <mxPoint x="702" y="89" as="sourcePoint"/>
                        <mxPoint x="728.0000000000005" y="110" as="targetPoint"/>
                    </mxGeometry>
                </mxCell>
                <mxCell id="1049" value="" style="endArrow=none;html=1;fontSize=24;curved=1;jumpStyle=none;entryX=0.5;entryY=1;entryDx=0;entryDy=0;edgeStyle=orthogonalEdgeStyle;rounded=1;" edge="1" parent="902">
                    <mxGeometry width="50" height="50" relative="1" as="geometry">
                        <mxPoint x="555" y="170" as="sourcePoint"/>
                        <mxPoint x="530" y="140" as="targetPoint"/>
                    </mxGeometry>
                </mxCell>
                <mxCell id="1050" value="" style="endArrow=none;html=1;fontSize=24;curved=1;jumpStyle=none;entryX=0.5;entryY=1;entryDx=0;entryDy=0;edgeStyle=orthogonalEdgeStyle;rounded=1;" edge="1" parent="902">
                    <mxGeometry width="50" height="50" relative="1" as="geometry">
                        <mxPoint x="595" y="170" as="sourcePoint"/>
                        <mxPoint x="570" y="140" as="targetPoint"/>
                    </mxGeometry>
                </mxCell>
                <mxCell id="1051" value="" style="endArrow=none;html=1;fontSize=24;curved=1;jumpStyle=none;entryX=0.5;entryY=1;entryDx=0;entryDy=0;edgeStyle=orthogonalEdgeStyle;rounded=1;" edge="1" parent="902">
                    <mxGeometry width="50" height="50" relative="1" as="geometry">
                        <mxPoint x="634" y="170" as="sourcePoint"/>
                        <mxPoint x="609" y="140" as="targetPoint"/>
                    </mxGeometry>
                </mxCell>
                <mxCell id="1052" value="" style="endArrow=none;html=1;fontSize=24;curved=1;jumpStyle=none;entryX=0.5;entryY=1;entryDx=0;entryDy=0;edgeStyle=orthogonalEdgeStyle;rounded=1;" edge="1" parent="902">
                    <mxGeometry width="50" height="50" relative="1" as="geometry">
                        <mxPoint x="673" y="170" as="sourcePoint"/>
                        <mxPoint x="648" y="140" as="targetPoint"/>
                    </mxGeometry>
                </mxCell>
                <mxCell id="1053" value="" style="endArrow=none;html=1;fontSize=24;curved=1;jumpStyle=none;entryX=0.5;entryY=1;entryDx=0;entryDy=0;edgeStyle=orthogonalEdgeStyle;rounded=1;" edge="1" parent="902">
                    <mxGeometry width="50" height="50" relative="1" as="geometry">
                        <mxPoint x="712" y="170" as="sourcePoint"/>
                        <mxPoint x="687" y="140" as="targetPoint"/>
                    </mxGeometry>
                </mxCell>
                <mxCell id="1054" value="" style="endArrow=none;html=1;fontSize=24;curved=1;jumpStyle=none;entryX=0.5;entryY=1;entryDx=0;entryDy=0;edgeStyle=orthogonalEdgeStyle;rounded=1;" edge="1" parent="902">
                    <mxGeometry width="50" height="50" relative="1" as="geometry">
                        <mxPoint x="753" y="170" as="sourcePoint"/>
                        <mxPoint x="728" y="140" as="targetPoint"/>
                    </mxGeometry>
                </mxCell>
                <mxCell id="904" value="Регистры" style="swimlane;whiteSpace=wrap;html=1;rounded=0;strokeWidth=3;fontSize=50;fillColor=none;startSize=70;" vertex="1" parent="1">
                    <mxGeometry x="1295.2400000000002" y="805" width="300" height="220" as="geometry"/>
                </mxCell>
                <mxCell id="905" value="+" style="ellipse;whiteSpace=wrap;html=1;aspect=fixed;fillStyle=auto;rounded=1;" vertex="1" parent="904">
                    <mxGeometry x="80" y="109.19999999999982" width="30" height="30" as="geometry"/>
                </mxCell>
                <mxCell id="906" value="BX" style="ellipse;whiteSpace=wrap;html=1;aspect=fixed;fillStyle=auto;rounded=1;" vertex="1" parent="904">
                    <mxGeometry x="120" y="109.19999999999982" width="30" height="30" as="geometry"/>
                </mxCell>
                <mxCell id="907" value="CX" style="ellipse;whiteSpace=wrap;html=1;aspect=fixed;fillStyle=auto;rounded=1;" vertex="1" parent="904">
                    <mxGeometry x="160" y="109.19999999999982" width="30" height="30" as="geometry"/>
                </mxCell>
                <mxCell id="908" value="" style="endArrow=none;html=1;fontSize=24;jumpStyle=none;curved=1;rounded=1;" edge="1" parent="904">
                    <mxGeometry width="50" height="50" relative="1" as="geometry">
                        <mxPoint x="50" y="89.19999999999982" as="sourcePoint"/>
                        <mxPoint x="194.75999999999976" y="89" as="targetPoint"/>
                    </mxGeometry>
                </mxCell>
                <mxCell id="909" value="" style="endArrow=none;html=1;fontSize=24;jumpStyle=none;entryX=0.5;entryY=0;entryDx=0;entryDy=0;edgeStyle=orthogonalEdgeStyle;curved=1;rounded=1;" edge="1" parent="904">
                    <mxGeometry width="50" height="50" relative="1" as="geometry">
                        <mxPoint x="150" y="89.19999999999982" as="sourcePoint"/>
                        <mxPoint x="175" y="109.19999999999982" as="targetPoint"/>
                    </mxGeometry>
                </mxCell>
                <mxCell id="910" value="" style="endArrow=none;html=1;fontSize=24;jumpStyle=none;entryX=0.5;entryY=0;entryDx=0;entryDy=0;edgeStyle=orthogonalEdgeStyle;curved=1;rounded=1;" edge="1" parent="904">
                    <mxGeometry width="50" height="50" relative="1" as="geometry">
                        <mxPoint x="110" y="89.19999999999982" as="sourcePoint"/>
                        <mxPoint x="135" y="109.19999999999982" as="targetPoint"/>
                    </mxGeometry>
                </mxCell>
                <mxCell id="911" value="" style="endArrow=none;html=1;fontSize=24;jumpStyle=none;entryX=0.5;entryY=0;entryDx=0;entryDy=0;edgeStyle=orthogonalEdgeStyle;curved=1;rounded=1;" edge="1" parent="904">
                    <mxGeometry width="50" height="50" relative="1" as="geometry">
                        <mxPoint x="70" y="89.19999999999982" as="sourcePoint"/>
                        <mxPoint x="95" y="109.19999999999982" as="targetPoint"/>
                    </mxGeometry>
                </mxCell>
                <mxCell id="912" value="" style="endArrow=none;html=1;fontSize=24;curved=1;jumpStyle=none;entryX=0.5;entryY=1;entryDx=0;entryDy=0;edgeStyle=orthogonalEdgeStyle;rounded=1;" edge="1" parent="904">
                    <mxGeometry width="50" height="50" relative="1" as="geometry">
                        <mxPoint x="200" y="169.19999999999982" as="sourcePoint"/>
                        <mxPoint x="175" y="139.19999999999982" as="targetPoint"/>
                    </mxGeometry>
                </mxCell>
                <mxCell id="913" value="" style="endArrow=none;html=1;fontSize=24;curved=1;jumpStyle=none;entryX=0.5;entryY=1;entryDx=0;entryDy=0;edgeStyle=orthogonalEdgeStyle;rounded=1;" edge="1" parent="904">
                    <mxGeometry width="50" height="50" relative="1" as="geometry">
                        <mxPoint x="160" y="169.19999999999982" as="sourcePoint"/>
                        <mxPoint x="135" y="139.19999999999982" as="targetPoint"/>
                    </mxGeometry>
                </mxCell>
                <mxCell id="914" value="" style="endArrow=none;html=1;fontSize=24;curved=1;jumpStyle=none;entryX=0.5;entryY=1;entryDx=0;entryDy=0;edgeStyle=orthogonalEdgeStyle;rounded=1;" edge="1" parent="904">
                    <mxGeometry width="50" height="50" relative="1" as="geometry">
                        <mxPoint x="120" y="169.19999999999982" as="sourcePoint"/>
                        <mxPoint x="95" y="139.19999999999982" as="targetPoint"/>
                        <Array as="points">
                            <mxPoint x="95" y="169.19999999999982"/>
                        </Array>
                    </mxGeometry>
                </mxCell>
                <mxCell id="915" value="" style="endArrow=none;html=1;fontSize=24;rounded=1;" edge="1" parent="904">
                    <mxGeometry width="50" height="50" relative="1" as="geometry">
                        <mxPoint x="119.52999999999975" y="169.19999999999982" as="sourcePoint"/>
                        <mxPoint x="264.75999999999976" y="169" as="targetPoint"/>
                    </mxGeometry>
                </mxCell>
                <mxCell id="916" value="$ регистры = &quot;AX&quot;|&quot;BX&quot;|&quot;CX&quot;|&quot;DX&quot;." style="text;whiteSpace=wrap;html=1;fontSize=5;" vertex="1" parent="904">
                    <mxGeometry x="110" y="190" width="80" height="20" as="geometry"/>
                </mxCell>
                <mxCell id="917" value="" style="endArrow=none;html=1;fontSize=24;jumpStyle=none;entryX=0.5;entryY=0;entryDx=0;entryDy=0;edgeStyle=orthogonalEdgeStyle;curved=1;rounded=1;" edge="1" parent="904">
                    <mxGeometry width="50" height="50" relative="1" as="geometry">
                        <mxPoint x="70" y="89.19999999999982" as="sourcePoint"/>
                        <mxPoint x="95" y="109.19999999999982" as="targetPoint"/>
                    </mxGeometry>
                </mxCell>
                <mxCell id="918" value="AX" style="ellipse;whiteSpace=wrap;html=1;aspect=fixed;fillStyle=auto;rounded=1;" vertex="1" parent="904">
                    <mxGeometry x="80" y="109.19999999999982" width="30" height="30" as="geometry"/>
                </mxCell>
                <mxCell id="919" value="" style="endArrow=none;html=1;fontSize=24;jumpStyle=none;entryX=0.5;entryY=0;entryDx=0;entryDy=0;edgeStyle=orthogonalEdgeStyle;curved=1;rounded=1;" edge="1" parent="904">
                    <mxGeometry width="50" height="50" relative="1" as="geometry">
                        <mxPoint x="190" y="89.19999999999982" as="sourcePoint"/>
                        <mxPoint x="215" y="109.19999999999982" as="targetPoint"/>
                    </mxGeometry>
                </mxCell>
                <mxCell id="920" value="DX" style="ellipse;whiteSpace=wrap;html=1;aspect=fixed;fillStyle=auto;rounded=1;" vertex="1" parent="904">
                    <mxGeometry x="200" y="109.19999999999982" width="30" height="30" as="geometry"/>
                </mxCell>
                <mxCell id="921" value="" style="endArrow=none;html=1;fontSize=24;curved=1;jumpStyle=none;entryX=0.5;entryY=1;entryDx=0;entryDy=0;edgeStyle=orthogonalEdgeStyle;rounded=1;" edge="1" parent="904">
                    <mxGeometry width="50" height="50" relative="1" as="geometry">
                        <mxPoint x="239.76" y="169.19999999999982" as="sourcePoint"/>
                        <mxPoint x="214.76" y="139.19999999999982" as="targetPoint"/>
                    </mxGeometry>
                </mxCell>
                <mxCell id="922" value="Терм" style="swimlane;whiteSpace=wrap;html=1;rounded=0;strokeWidth=3;fontSize=50;fillColor=none;startSize=70;" vertex="1" parent="1">
                    <mxGeometry x="1710" y="830" width="630" height="220" as="geometry"/>
                </mxCell>
                <mxCell id="923" value="" style="endArrow=none;html=1;fontSize=24;jumpStyle=none;curved=1;rounded=1;" edge="1" parent="922">
                    <mxGeometry width="50" height="50" relative="1" as="geometry">
                        <mxPoint x="50" y="89.19999999999982" as="sourcePoint"/>
                        <mxPoint x="500" y="90" as="targetPoint"/>
                    </mxGeometry>
                </mxCell>
                <mxCell id="924" value="" style="endArrow=none;html=1;fontSize=24;rounded=1;" edge="1" parent="922">
                    <mxGeometry width="50" height="50" relative="1" as="geometry">
                        <mxPoint x="114.75999999999975" y="164.99999999999983" as="sourcePoint"/>
                        <mxPoint x="590" y="165" as="targetPoint"/>
                    </mxGeometry>
                </mxCell>
                <mxCell id="925" value="$ терм = [метка] команда операнд [разделитель операнд]." style="text;whiteSpace=wrap;html=1;fontSize=5;" vertex="1" parent="922">
                    <mxGeometry x="240" y="190" width="180" height="20" as="geometry"/>
                </mxCell>
                <mxCell id="926" value="" style="endArrow=none;html=1;fontSize=24;jumpStyle=none;entryX=0.5;entryY=0;entryDx=0;entryDy=0;edgeStyle=orthogonalEdgeStyle;rounded=1;" edge="1" parent="922" target="927">
                    <mxGeometry width="50" height="50" relative="1" as="geometry">
                        <mxPoint x="70" y="89.19999999999982" as="sourcePoint"/>
                        <mxPoint x="95" y="109.19999999999982" as="targetPoint"/>
                        <Array as="points">
                            <mxPoint x="92" y="89"/>
                            <mxPoint x="92" y="115"/>
                        </Array>
                    </mxGeometry>
                </mxCell>
                <mxCell id="927" value="метка" style="rounded=0;whiteSpace=wrap;html=1;strokeWidth=1;fontSize=12;fillColor=none;glass=0;" vertex="1" parent="922">
                    <mxGeometry x="64.76" y="115" width="60" height="20" as="geometry"/>
                </mxCell>
                <mxCell id="928" value="" style="endArrow=none;html=1;fontSize=24;jumpStyle=none;entryX=0.5;entryY=0;entryDx=0;entryDy=0;edgeStyle=orthogonalEdgeStyle;rounded=1;" edge="1" parent="922">
                    <mxGeometry width="50" height="50" relative="1" as="geometry">
                        <mxPoint x="120" y="165" as="sourcePoint"/>
                        <mxPoint x="95" y="135.00392156862767" as="targetPoint"/>
                        <Array as="points">
                            <mxPoint x="95" y="165"/>
                        </Array>
                    </mxGeometry>
                </mxCell>
                <mxCell id="929" value="" style="endArrow=none;html=1;fontSize=24;jumpStyle=none;entryX=0.5;entryY=0;entryDx=0;entryDy=0;edgeStyle=orthogonalEdgeStyle;rounded=1;" edge="1" parent="922">
                    <mxGeometry width="50" height="50" relative="1" as="geometry">
                        <mxPoint x="205.38" y="165" as="sourcePoint"/>
                        <mxPoint x="178.38" y="135.00392156862767" as="targetPoint"/>
                        <Array as="points">
                            <mxPoint x="199.38" y="165"/>
                            <mxPoint x="177.38" y="165"/>
                            <mxPoint x="177.38" y="135"/>
                        </Array>
                    </mxGeometry>
                </mxCell>
                <mxCell id="930" value="" style="endArrow=none;html=1;fontSize=24;jumpStyle=none;entryX=0.5;entryY=0;entryDx=0;entryDy=0;edgeStyle=orthogonalEdgeStyle;rounded=1;" edge="1" parent="922">
                    <mxGeometry width="50" height="50" relative="1" as="geometry">
                        <mxPoint x="256.1900000000003" y="89.17999999999984" as="sourcePoint"/>
                        <mxPoint x="278.56999999999994" y="114.98000000000002" as="targetPoint"/>
                        <Array as="points">
                            <mxPoint x="278.19000000000005" y="88.98000000000002"/>
                            <mxPoint x="278.19000000000005" y="114.98000000000002"/>
                        </Array>
                    </mxGeometry>
                </mxCell>
                <mxCell id="931" value="" style="endArrow=none;html=1;fontSize=24;jumpStyle=none;entryX=0.5;entryY=0;entryDx=0;entryDy=0;edgeStyle=orthogonalEdgeStyle;rounded=1;" edge="1" parent="922">
                    <mxGeometry width="50" height="50" relative="1" as="geometry">
                        <mxPoint x="307.99999999999994" y="165" as="sourcePoint"/>
                        <mxPoint x="280.99999999999994" y="135.00392156862767" as="targetPoint"/>
                        <Array as="points">
                            <mxPoint x="301.99999999999994" y="165"/>
                            <mxPoint x="279.99999999999994" y="165"/>
                            <mxPoint x="279.99999999999994" y="135"/>
                        </Array>
                    </mxGeometry>
                </mxCell>
                <mxCell id="932" value="команда" style="rounded=0;whiteSpace=wrap;html=1;strokeWidth=1;fontSize=12;fillColor=none;glass=0;" vertex="1" parent="922">
                    <mxGeometry x="140" y="115" width="70" height="20" as="geometry"/>
                </mxCell>
                <mxCell id="933" value="" style="endArrow=none;html=1;fontSize=24;jumpStyle=none;entryX=0.5;entryY=0;entryDx=0;entryDy=0;edgeStyle=orthogonalEdgeStyle;rounded=1;" edge="1" parent="922">
                    <mxGeometry width="50" height="50" relative="1" as="geometry">
                        <mxPoint x="155.38" y="89.19999999999982" as="sourcePoint"/>
                        <mxPoint x="177.38" y="115" as="targetPoint"/>
                        <Array as="points">
                            <mxPoint x="177.38" y="89"/>
                            <mxPoint x="177.38" y="115"/>
                        </Array>
                    </mxGeometry>
                </mxCell>
                <mxCell id="934" value="операнд" style="rounded=0;whiteSpace=wrap;html=1;strokeWidth=1;fontSize=12;fillColor=none;glass=0;" vertex="1" parent="922">
                    <mxGeometry x="230" y="115" width="95.24" height="20" as="geometry"/>
                </mxCell>
                <mxCell id="935" value="" style="endArrow=none;html=1;fontSize=24;jumpStyle=none;entryX=0.5;entryY=0;entryDx=0;entryDy=0;edgeStyle=orthogonalEdgeStyle;rounded=1;" edge="1" parent="922">
                    <mxGeometry width="50" height="50" relative="1" as="geometry">
                        <mxPoint x="364.7600000000002" y="89.16999999999985" as="sourcePoint"/>
                        <mxPoint x="387.1400000000001" y="114.97000000000003" as="targetPoint"/>
                        <Array as="points">
                            <mxPoint x="386.76" y="88.97000000000003"/>
                            <mxPoint x="386.76" y="114.97000000000003"/>
                        </Array>
                    </mxGeometry>
                </mxCell>
                <mxCell id="936" value="разделитель" style="rounded=0;whiteSpace=wrap;html=1;strokeWidth=1;fontSize=12;fillColor=none;glass=0;" vertex="1" parent="922">
                    <mxGeometry x="344.76" y="115" width="95.24" height="20" as="geometry"/>
                </mxCell>
                <mxCell id="937" value="" style="endArrow=none;html=1;fontSize=24;jumpStyle=none;entryX=0.5;entryY=0;entryDx=0;entryDy=0;edgeStyle=orthogonalEdgeStyle;rounded=1;" edge="1" parent="922">
                    <mxGeometry width="50" height="50" relative="1" as="geometry">
                        <mxPoint x="411.79999999999995" y="165" as="sourcePoint"/>
                        <mxPoint x="384.79999999999995" y="135.00392156862767" as="targetPoint"/>
                        <Array as="points">
                            <mxPoint x="405.79999999999995" y="165"/>
                            <mxPoint x="383.79999999999995" y="165"/>
                            <mxPoint x="383.79999999999995" y="135"/>
                        </Array>
                    </mxGeometry>
                </mxCell>
                <mxCell id="938" value="операнд" style="rounded=0;whiteSpace=wrap;html=1;strokeWidth=1;fontSize=12;fillColor=none;glass=0;" vertex="1" parent="922">
                    <mxGeometry x="460.0000000000002" y="115" width="95.24" height="20" as="geometry"/>
                </mxCell>
                <mxCell id="939" value="" style="endArrow=none;html=1;fontSize=24;jumpStyle=none;entryX=0.5;entryY=0;entryDx=0;entryDy=0;edgeStyle=orthogonalEdgeStyle;rounded=1;" edge="1" parent="922">
                    <mxGeometry width="50" height="50" relative="1" as="geometry">
                        <mxPoint x="490" y="89.16999999999985" as="sourcePoint"/>
                        <mxPoint x="512.3800000000001" y="114.97000000000003" as="targetPoint"/>
                        <Array as="points">
                            <mxPoint x="512" y="88.97000000000003"/>
                            <mxPoint x="512" y="114.97000000000003"/>
                        </Array>
                    </mxGeometry>
                </mxCell>
                <mxCell id="940" value="" style="endArrow=none;html=1;fontSize=24;jumpStyle=none;entryX=0.5;entryY=0;entryDx=0;entryDy=0;edgeStyle=orthogonalEdgeStyle;rounded=1;" edge="1" parent="922">
                    <mxGeometry width="50" height="50" relative="1" as="geometry">
                        <mxPoint x="538" y="165" as="sourcePoint"/>
                        <mxPoint x="511" y="135.00392156862767" as="targetPoint"/>
                        <Array as="points">
                            <mxPoint x="532" y="165"/>
                            <mxPoint x="510" y="165"/>
                            <mxPoint x="510" y="135"/>
                        </Array>
                    </mxGeometry>
                </mxCell>
                <mxCell id="941" value="Метка" style="swimlane;whiteSpace=wrap;html=1;rounded=0;strokeWidth=3;fontSize=50;fillColor=none;startSize=70;" vertex="1" parent="1">
                    <mxGeometry x="1690.0000000000002" y="520" width="300" height="220" as="geometry"/>
                </mxCell>
                <mxCell id="942" value="" style="endArrow=none;html=1;fontSize=24;jumpStyle=none;curved=1;rounded=1;" edge="1" parent="941">
                    <mxGeometry width="50" height="50" relative="1" as="geometry">
                        <mxPoint x="60" y="90.19999999999982" as="sourcePoint"/>
                        <mxPoint x="160" y="90" as="targetPoint"/>
                    </mxGeometry>
                </mxCell>
                <mxCell id="943" value="" style="endArrow=none;html=1;fontSize=24;jumpStyle=none;entryX=0.5;entryY=0;entryDx=0;entryDy=0;edgeStyle=orthogonalEdgeStyle;curved=1;rounded=1;" edge="1" parent="941">
                    <mxGeometry width="50" height="50" relative="1" as="geometry">
                        <mxPoint x="160" y="90.19999999999982" as="sourcePoint"/>
                        <mxPoint x="185" y="110.19999999999982" as="targetPoint"/>
                    </mxGeometry>
                </mxCell>
                <mxCell id="944" value="" style="endArrow=none;html=1;fontSize=24;jumpStyle=none;entryX=0.5;entryY=0;entryDx=0;entryDy=0;edgeStyle=orthogonalEdgeStyle;curved=1;rounded=1;" edge="1" parent="941">
                    <mxGeometry width="50" height="50" relative="1" as="geometry">
                        <mxPoint x="120" y="90.19999999999982" as="sourcePoint"/>
                        <mxPoint x="145" y="110.19999999999982" as="targetPoint"/>
                    </mxGeometry>
                </mxCell>
                <mxCell id="945" value="" style="endArrow=none;html=1;fontSize=24;jumpStyle=none;entryX=0.5;entryY=0;entryDx=0;entryDy=0;edgeStyle=orthogonalEdgeStyle;curved=1;rounded=1;" edge="1" parent="941">
                    <mxGeometry width="50" height="50" relative="1" as="geometry">
                        <mxPoint x="80" y="90.19999999999982" as="sourcePoint"/>
                        <mxPoint x="105" y="110.19999999999982" as="targetPoint"/>
                    </mxGeometry>
                </mxCell>
                <mxCell id="946" value="" style="endArrow=none;html=1;fontSize=24;curved=1;jumpStyle=none;entryX=0.5;entryY=1;entryDx=0;entryDy=0;edgeStyle=orthogonalEdgeStyle;rounded=1;" edge="1" parent="941">
                    <mxGeometry width="50" height="50" relative="1" as="geometry">
                        <mxPoint x="210" y="170.19999999999982" as="sourcePoint"/>
                        <mxPoint x="185" y="140.19999999999982" as="targetPoint"/>
                    </mxGeometry>
                </mxCell>
                <mxCell id="947" value="" style="endArrow=none;html=1;fontSize=24;curved=1;jumpStyle=none;entryX=0.5;entryY=1;entryDx=0;entryDy=0;edgeStyle=orthogonalEdgeStyle;rounded=1;" edge="1" parent="941">
                    <mxGeometry width="50" height="50" relative="1" as="geometry">
                        <mxPoint x="170" y="170.19999999999982" as="sourcePoint"/>
                        <mxPoint x="145" y="140.19999999999982" as="targetPoint"/>
                    </mxGeometry>
                </mxCell>
                <mxCell id="948" value="" style="endArrow=none;html=1;fontSize=24;curved=1;jumpStyle=none;entryX=0.5;entryY=1;entryDx=0;entryDy=0;edgeStyle=orthogonalEdgeStyle;rounded=1;" edge="1" parent="941">
                    <mxGeometry width="50" height="50" relative="1" as="geometry">
                        <mxPoint x="130" y="170.19999999999982" as="sourcePoint"/>
                        <mxPoint x="105" y="140.19999999999982" as="targetPoint"/>
                        <Array as="points">
                            <mxPoint x="105" y="170.19999999999982"/>
                        </Array>
                    </mxGeometry>
                </mxCell>
                <mxCell id="949" value="" style="endArrow=none;html=1;fontSize=24;rounded=1;" edge="1" parent="941">
                    <mxGeometry width="50" height="50" relative="1" as="geometry">
                        <mxPoint x="129.52999999999975" y="170.19999999999982" as="sourcePoint"/>
                        <mxPoint x="240" y="171" as="targetPoint"/>
                    </mxGeometry>
                </mxCell>
                <mxCell id="950" value="" style="endArrow=none;html=1;fontSize=24;jumpStyle=none;entryX=0.5;entryY=0;entryDx=0;entryDy=0;edgeStyle=orthogonalEdgeStyle;curved=1;rounded=1;" edge="1" parent="941">
                    <mxGeometry width="50" height="50" relative="1" as="geometry">
                        <mxPoint x="80" y="90.19999999999982" as="sourcePoint"/>
                        <mxPoint x="105" y="110.19999999999982" as="targetPoint"/>
                    </mxGeometry>
                </mxCell>
                <mxCell id="951" value="&lt;font style=&quot;font-size: 9px;&quot;&gt;LOOP:&lt;/font&gt;" style="ellipse;whiteSpace=wrap;html=1;aspect=fixed;fillStyle=auto;rounded=1;" vertex="1" parent="941">
                    <mxGeometry x="130" y="110.19999999999982" width="30" height="30" as="geometry"/>
                </mxCell>
                <mxCell id="952" value="&lt;font style=&quot;font-size: 10px;&quot;&gt;END:&lt;/font&gt;" style="ellipse;whiteSpace=wrap;html=1;aspect=fixed;fillStyle=auto;rounded=1;" vertex="1" parent="941">
                    <mxGeometry x="170" y="110.19999999999982" width="30" height="30" as="geometry"/>
                </mxCell>
                <mxCell id="953" value="&lt;font style=&quot;font-size: 8px;&quot;&gt;START:&lt;/font&gt;" style="ellipse;whiteSpace=wrap;html=1;aspect=fixed;fillStyle=auto;rounded=1;" vertex="1" parent="941">
                    <mxGeometry x="90" y="110.2" width="29.8" height="29.8" as="geometry"/>
                </mxCell>
                <mxCell id="954" value="$ метка = идентификатор &quot;:&quot;." style="text;whiteSpace=wrap;html=1;fontSize=5;" vertex="1" parent="941">
                    <mxGeometry x="109.99999999999977" y="200" width="180" height="20" as="geometry"/>
                </mxCell>
                <mxCell id="955" value="Разделитель" style="swimlane;whiteSpace=wrap;html=1;rounded=0;strokeWidth=3;fontSize=50;fillColor=none;startSize=70;" vertex="1" parent="1">
                    <mxGeometry x="2040" y="520" width="350" height="220" as="geometry"/>
                </mxCell>
                <mxCell id="956" value="" style="endArrow=none;html=1;fontSize=24;jumpStyle=none;entryX=0.5;entryY=0;entryDx=0;entryDy=0;edgeStyle=orthogonalEdgeStyle;curved=1;rounded=1;" edge="1" parent="955">
                    <mxGeometry width="50" height="50" relative="1" as="geometry">
                        <mxPoint x="140" y="99.99999999999982" as="sourcePoint"/>
                        <mxPoint x="165" y="119.99999999999982" as="targetPoint"/>
                    </mxGeometry>
                </mxCell>
                <mxCell id="957" value="" style="endArrow=none;html=1;fontSize=24;curved=1;jumpStyle=none;entryX=0.5;entryY=1;entryDx=0;entryDy=0;edgeStyle=orthogonalEdgeStyle;rounded=1;" edge="1" parent="955">
                    <mxGeometry width="50" height="50" relative="1" as="geometry">
                        <mxPoint x="190" y="179.99999999999983" as="sourcePoint"/>
                        <mxPoint x="165" y="149.99999999999983" as="targetPoint"/>
                        <Array as="points">
                            <mxPoint x="165" y="179.99999999999983"/>
                        </Array>
                    </mxGeometry>
                </mxCell>
                <mxCell id="958" value="" style="endArrow=none;html=1;fontSize=24;jumpStyle=none;entryX=0.5;entryY=0;entryDx=0;entryDy=0;edgeStyle=orthogonalEdgeStyle;curved=1;rounded=1;" edge="1" parent="955">
                    <mxGeometry width="50" height="50" relative="1" as="geometry">
                        <mxPoint x="140" y="99.99999999999982" as="sourcePoint"/>
                        <mxPoint x="165" y="119.99999999999982" as="targetPoint"/>
                    </mxGeometry>
                </mxCell>
                <mxCell id="959" value="&lt;font style=&quot;font-size: 8px;&quot;&gt;&quot;,&quot;&lt;/font&gt;" style="ellipse;whiteSpace=wrap;html=1;aspect=fixed;fillStyle=auto;rounded=1;" vertex="1" parent="955">
                    <mxGeometry x="150" y="120" width="29.8" height="29.8" as="geometry"/>
                </mxCell>
                <mxCell id="960" value="$ разделитель = &quot;,&quot;." style="text;whiteSpace=wrap;html=1;fontSize=5;" vertex="1" parent="955">
                    <mxGeometry x="135" y="200" width="80" height="20" as="geometry"/>
                </mxCell>
                <mxCell id="961" value="" style="endArrow=none;html=1;rounded=0;" edge="1" parent="955">
                    <mxGeometry width="50" height="50" relative="1" as="geometry">
                        <mxPoint x="190" y="180" as="sourcePoint"/>
                        <mxPoint x="210" y="180" as="targetPoint"/>
                    </mxGeometry>
                </mxCell>
                <mxCell id="962" value="" style="endArrow=none;html=1;rounded=0;" edge="1" parent="1">
                    <mxGeometry width="50" height="50" relative="1" as="geometry">
                        <mxPoint x="2160" y="620" as="sourcePoint"/>
                        <mxPoint x="2180" y="620" as="targetPoint"/>
                    </mxGeometry>
                </mxCell>
                <mxCell id="963" value="Операнд" style="swimlane;whiteSpace=wrap;html=1;rounded=0;strokeWidth=3;fontSize=50;fillColor=none;startSize=70;" vertex="1" parent="1">
                    <mxGeometry x="2186" y="245" width="500" height="220" as="geometry"/>
                </mxCell>
                <mxCell id="964" value="" style="endArrow=none;html=1;fontSize=24;jumpStyle=none;curved=1;rounded=1;" edge="1" parent="963">
                    <mxGeometry width="50" height="50" relative="1" as="geometry">
                        <mxPoint x="50" y="89.19999999999982" as="sourcePoint"/>
                        <mxPoint x="330" y="90" as="targetPoint"/>
                    </mxGeometry>
                </mxCell>
                <mxCell id="965" value="" style="endArrow=none;html=1;fontSize=24;curved=1;jumpStyle=none;entryX=0.581;entryY=1;entryDx=0;entryDy=0;edgeStyle=orthogonalEdgeStyle;rounded=1;entryPerimeter=0;" edge="1" parent="963" target="970">
                    <mxGeometry width="50" height="50" relative="1" as="geometry">
                        <mxPoint x="125" y="159.99999999999983" as="sourcePoint"/>
                        <mxPoint x="100" y="129.99999999999983" as="targetPoint"/>
                        <Array as="points">
                            <mxPoint x="105" y="160"/>
                            <mxPoint x="105" y="130"/>
                        </Array>
                    </mxGeometry>
                </mxCell>
                <mxCell id="966" value="" style="endArrow=none;html=1;fontSize=24;rounded=1;" edge="1" parent="963">
                    <mxGeometry width="50" height="50" relative="1" as="geometry">
                        <mxPoint x="119.52999999999975" y="160.19999999999982" as="sourcePoint"/>
                        <mxPoint x="410" y="160" as="targetPoint"/>
                    </mxGeometry>
                </mxCell>
                <mxCell id="967" value="$ операнд = &quot;метка&quot; | &quot;регистр&quot; | &quot;идентификатор&quot; | &quot;число&quot;." style="text;whiteSpace=wrap;html=1;fontSize=5;" vertex="1" parent="963">
                    <mxGeometry x="215" y="190" width="155" height="20" as="geometry"/>
                </mxCell>
                <mxCell id="968" value="" style="endArrow=none;html=1;fontSize=24;jumpStyle=none;entryX=0.5;entryY=0;entryDx=0;entryDy=0;edgeStyle=orthogonalEdgeStyle;curved=1;rounded=1;" edge="1" parent="963">
                    <mxGeometry width="50" height="50" relative="1" as="geometry">
                        <mxPoint x="80" y="89.99999999999982" as="sourcePoint"/>
                        <mxPoint x="105" y="109.99999999999982" as="targetPoint"/>
                    </mxGeometry>
                </mxCell>
                <mxCell id="969" value="" style="endArrow=none;html=1;fontSize=24;jumpStyle=none;entryX=0.5;entryY=0;entryDx=0;entryDy=0;edgeStyle=orthogonalEdgeStyle;curved=1;rounded=1;" edge="1" parent="963" target="971">
                    <mxGeometry width="50" height="50" relative="1" as="geometry">
                        <mxPoint x="150" y="89" as="sourcePoint"/>
                        <mxPoint x="215" y="109.19999999999982" as="targetPoint"/>
                        <Array as="points">
                            <mxPoint x="150" y="90"/>
                            <mxPoint x="170" y="90"/>
                        </Array>
                    </mxGeometry>
                </mxCell>
                <mxCell id="970" value="метка" style="rounded=0;whiteSpace=wrap;html=1;strokeWidth=1;fontSize=12;fillColor=none;glass=0;" vertex="1" parent="963">
                    <mxGeometry x="70" y="110" width="60" height="20" as="geometry"/>
                </mxCell>
                <mxCell id="971" value="регистр" style="rounded=0;whiteSpace=wrap;html=1;strokeWidth=1;fontSize=12;fillColor=none;glass=0;" vertex="1" parent="963">
                    <mxGeometry x="140" y="110" width="60" height="20" as="geometry"/>
                </mxCell>
                <mxCell id="972" value="" style="endArrow=none;html=1;fontSize=24;curved=1;jumpStyle=none;entryX=0.581;entryY=1;entryDx=0;entryDy=0;edgeStyle=orthogonalEdgeStyle;rounded=1;entryPerimeter=0;" edge="1" parent="963">
                    <mxGeometry width="50" height="50" relative="1" as="geometry">
                        <mxPoint x="190" y="159.99999999999983" as="sourcePoint"/>
                        <mxPoint x="170" y="130" as="targetPoint"/>
                        <Array as="points">
                            <mxPoint x="170" y="160"/>
                            <mxPoint x="170" y="130"/>
                        </Array>
                    </mxGeometry>
                </mxCell>
                <mxCell id="973" value="идентификатор" style="rounded=0;whiteSpace=wrap;html=1;strokeWidth=1;fontSize=12;fillColor=none;glass=0;" vertex="1" parent="963">
                    <mxGeometry x="210" y="110" width="90" height="20" as="geometry"/>
                </mxCell>
                <mxCell id="974" value="" style="endArrow=none;html=1;fontSize=24;jumpStyle=none;entryX=0.5;entryY=0;entryDx=0;entryDy=0;edgeStyle=orthogonalEdgeStyle;curved=1;rounded=1;" edge="1" parent="963" target="973">
                    <mxGeometry width="50" height="50" relative="1" as="geometry">
                        <mxPoint x="230" y="90" as="sourcePoint"/>
                        <mxPoint x="275" y="109.99999999999983" as="targetPoint"/>
                        <Array as="points">
                            <mxPoint x="255" y="90"/>
                        </Array>
                    </mxGeometry>
                </mxCell>
                <mxCell id="975" value="" style="endArrow=none;html=1;fontSize=24;curved=1;jumpStyle=none;entryX=0.5;entryY=1;entryDx=0;entryDy=0;edgeStyle=orthogonalEdgeStyle;rounded=1;" edge="1" parent="963" target="973">
                    <mxGeometry width="50" height="50" relative="1" as="geometry">
                        <mxPoint x="280" y="160" as="sourcePoint"/>
                        <mxPoint x="280" y="130" as="targetPoint"/>
                        <Array as="points">
                            <mxPoint x="255" y="160"/>
                        </Array>
                    </mxGeometry>
                </mxCell>
                <mxCell id="976" value="число" style="rounded=0;whiteSpace=wrap;html=1;strokeWidth=1;fontSize=12;fillColor=none;glass=0;" vertex="1" parent="963">
                    <mxGeometry x="310" y="110" width="60" height="20" as="geometry"/>
                </mxCell>
                <mxCell id="977" value="" style="endArrow=none;html=1;fontSize=24;jumpStyle=none;entryX=0.5;entryY=0;entryDx=0;entryDy=0;edgeStyle=orthogonalEdgeStyle;curved=1;rounded=1;" edge="1" parent="963" target="976">
                    <mxGeometry width="50" height="50" relative="1" as="geometry">
                        <mxPoint x="320" y="90" as="sourcePoint"/>
                        <mxPoint x="345" y="110" as="targetPoint"/>
                        <Array as="points">
                            <mxPoint x="340" y="90"/>
                        </Array>
                    </mxGeometry>
                </mxCell>
                <mxCell id="978" value="" style="endArrow=none;html=1;fontSize=24;curved=1;jumpStyle=none;entryX=0.5;entryY=1;entryDx=0;entryDy=0;edgeStyle=orthogonalEdgeStyle;rounded=1;" edge="1" parent="963">
                    <mxGeometry width="50" height="50" relative="1" as="geometry">
                        <mxPoint x="365" y="160" as="sourcePoint"/>
                        <mxPoint x="340" y="130" as="targetPoint"/>
                        <Array as="points">
                            <mxPoint x="340" y="160"/>
                        </Array>
                    </mxGeometry>
                </mxCell>
                <mxCell id="989" value="" style="endArrow=none;html=1;rounded=1;fontSize=5;" edge="1" parent="1" target="991">
                    <mxGeometry width="50" height="50" relative="1" as="geometry">
                        <mxPoint x="1309.76" y="1350" as="sourcePoint"/>
                        <mxPoint x="1369.76" y="1350" as="targetPoint"/>
                    </mxGeometry>
                </mxCell>
                <mxCell id="990" style="edgeStyle=none;rounded=1;html=1;exitX=1;exitY=0.5;exitDx=0;exitDy=0;fontSize=12;endArrow=none;endFill=0;strokeWidth=1;" edge="1" parent="1" source="991">
                    <mxGeometry relative="1" as="geometry">
                        <mxPoint x="1630" y="1350" as="targetPoint"/>
                    </mxGeometry>
                </mxCell>
                <mxCell id="991" value="терм" style="rounded=0;whiteSpace=wrap;html=1;strokeWidth=1;fontSize=12;fillColor=none;glass=0;" vertex="1" parent="1">
                    <mxGeometry x="1365.2399999999996" y="1340" width="49.76" height="20" as="geometry"/>
                </mxCell>
                <mxCell id="992" style="edgeStyle=orthogonalEdgeStyle;rounded=1;html=1;fontSize=12;endArrow=none;endFill=0;" edge="1" parent="1">
                    <mxGeometry relative="1" as="geometry">
                        <mxPoint x="1510" y="1350" as="targetPoint"/>
                        <mxPoint x="1510" y="1320" as="sourcePoint"/>
                        <Array as="points">
                            <mxPoint x="1490" y="1320"/>
                            <mxPoint x="1490" y="1350"/>
                        </Array>
                    </mxGeometry>
                </mxCell>
                <mxCell id="993" style="edgeStyle=orthogonalEdgeStyle;rounded=1;html=1;fontSize=12;endArrow=none;endFill=0;entryX=1;entryY=0.5;entryDx=0;entryDy=0;" edge="1" parent="1" target="997">
                    <mxGeometry relative="1" as="geometry">
                        <mxPoint x="1585.5" y="1315" as="targetPoint"/>
                        <mxPoint x="1590.26" y="1350" as="sourcePoint"/>
                        <Array as="points">
                            <mxPoint x="1600.26" y="1350"/>
                            <mxPoint x="1600.26" y="1320"/>
                        </Array>
                    </mxGeometry>
                </mxCell>
                <mxCell id="994" value="" style="endArrow=none;html=1;rounded=1;strokeWidth=1;fontSize=5;curved=1;exitX=1;exitY=0.5;exitDx=0;exitDy=0;entryX=0;entryY=0.5;entryDx=0;entryDy=0;" edge="1" parent="1" target="997">
                    <mxGeometry width="50" height="50" relative="1" as="geometry">
                        <mxPoint x="1500.26" y="1320" as="sourcePoint"/>
                        <mxPoint x="1530.26" y="1320" as="targetPoint"/>
                    </mxGeometry>
                </mxCell>
                <mxCell id="995" value="&lt;font style=&quot;font-size: 30px;&quot;&gt;Выражение&lt;/font&gt;" style="swimlane;whiteSpace=wrap;html=1;rounded=0;glass=0;strokeWidth=1;fontSize=12;fillColor=none;startSize=40;" vertex="1" parent="1">
                    <mxGeometry x="1295.24" y="1250" width="374.76" height="180" as="geometry"/>
                </mxCell>
                <mxCell id="996" value="$ выражение = терм { терм }." style="text;whiteSpace=wrap;html=1;fontSize=5;fontStyle=2" vertex="1" parent="995">
                    <mxGeometry x="132.38" y="160" width="110" height="20" as="geometry"/>
                </mxCell>
                <mxCell id="997" value="терм" style="rounded=0;whiteSpace=wrap;html=1;strokeWidth=1;fontSize=12;fillColor=none;glass=0;" vertex="1" parent="995">
                    <mxGeometry x="224.76" y="60" width="49.76" height="20" as="geometry"/>
                </mxCell>
                <mxCell id="998" value="&lt;font style=&quot;font-size: 30px;&quot;&gt;Инструкция&lt;/font&gt;" style="swimlane;whiteSpace=wrap;html=1;rounded=0;glass=0;strokeWidth=1;fontSize=12;fillColor=none;startSize=40;" vertex="1" parent="1">
                    <mxGeometry x="1710" y="1250" width="254.76" height="180" as="geometry"/>
                </mxCell>
                <mxCell id="999" value="$ инструкция = выражение." style="text;whiteSpace=wrap;html=1;fontSize=5;fontStyle=2" vertex="1" parent="998">
                    <mxGeometry x="89.76" y="150" width="75.24" height="20" as="geometry"/>
                </mxCell>
                <mxCell id="1000" value="" style="endArrow=none;html=1;rounded=1;fontSize=5;" edge="1" parent="998" target="1001">
                    <mxGeometry width="50" height="50" relative="1" as="geometry">
                        <mxPoint x="39.99999999999999" y="100" as="sourcePoint"/>
                        <mxPoint x="89.99999999999999" y="100" as="targetPoint"/>
                    </mxGeometry>
                </mxCell>
                <mxCell id="1001" value="выражение" style="rounded=0;whiteSpace=wrap;html=1;strokeWidth=1;fontSize=12;fillColor=none;glass=0;" vertex="1" parent="998">
                    <mxGeometry x="85.24" y="90" width="70" height="20" as="geometry"/>
                </mxCell>
                <mxCell id="1002" value="" style="endArrow=none;html=1;rounded=1;strokeWidth=1;fontSize=5;exitX=1;exitY=0.5;exitDx=0;exitDy=0;" edge="1" parent="998" source="1001">
                    <mxGeometry width="50" height="50" relative="1" as="geometry">
                        <mxPoint x="190" y="150" as="sourcePoint"/>
                        <mxPoint x="200" y="100" as="targetPoint"/>
                    </mxGeometry>
                </mxCell>
                <mxCell id="1003" value="" style="endArrow=none;html=1;rounded=1;fontSize=5;" edge="1" parent="1" target="1005">
                    <mxGeometry width="50" height="50" relative="1" as="geometry">
                        <mxPoint x="2020.0000000000002" y="1355" as="sourcePoint"/>
                        <mxPoint x="2080" y="1355" as="targetPoint"/>
                    </mxGeometry>
                </mxCell>
                <mxCell id="1004" style="edgeStyle=none;rounded=1;html=1;exitX=1;exitY=0.5;exitDx=0;exitDy=0;fontSize=12;endArrow=none;endFill=0;strokeWidth=1;" edge="1" parent="1" source="1005">
                    <mxGeometry relative="1" as="geometry">
                        <mxPoint x="2300" y="1355" as="targetPoint"/>
                    </mxGeometry>
                </mxCell>
                <mxCell id="1005" value="инструкция" style="rounded=0;whiteSpace=wrap;html=1;strokeWidth=1;fontSize=12;fillColor=none;glass=0;" vertex="1" parent="1">
                    <mxGeometry x="2075.4799999999996" y="1345" width="79.52" height="20" as="geometry"/>
                </mxCell>
                <mxCell id="1006" value="инструкция" style="rounded=0;whiteSpace=wrap;html=1;strokeWidth=1;fontSize=12;fillColor=none;glass=0;" vertex="1" parent="1">
                    <mxGeometry x="2195" y="1315" width="70" height="20" as="geometry"/>
                </mxCell>
                <mxCell id="1007" style="edgeStyle=orthogonalEdgeStyle;rounded=1;html=1;fontSize=12;endArrow=none;endFill=0;exitX=0;exitY=0.5;exitDx=0;exitDy=0;" edge="1" parent="1" source="1006">
                    <mxGeometry relative="1" as="geometry">
                        <mxPoint x="2210" y="1355" as="targetPoint"/>
                        <mxPoint x="2190" y="1325" as="sourcePoint"/>
                        <Array as="points">
                            <mxPoint x="2185" y="1324.98"/>
                            <mxPoint x="2185" y="1354.98"/>
                        </Array>
                    </mxGeometry>
                </mxCell>
                <mxCell id="1008" style="edgeStyle=orthogonalEdgeStyle;rounded=1;html=1;fontSize=12;endArrow=none;endFill=0;entryX=1;entryY=0.5;entryDx=0;entryDy=0;" edge="1" parent="1" target="1006">
                    <mxGeometry relative="1" as="geometry">
                        <mxPoint x="2285.24" y="1325" as="targetPoint"/>
                        <mxPoint x="2240" y="1355" as="sourcePoint"/>
                        <Array as="points">
                            <mxPoint x="2275" y="1354.98"/>
                            <mxPoint x="2275" y="1324.98"/>
                        </Array>
                    </mxGeometry>
                </mxCell>
                <mxCell id="1009" value="&lt;span style=&quot;font-size: 30px;&quot;&gt;Программа&lt;/span&gt;" style="swimlane;whiteSpace=wrap;html=1;rounded=0;glass=0;strokeWidth=1;fontSize=12;fillColor=none;startSize=40;" vertex="1" parent="1">
                    <mxGeometry x="2000" y="1250" width="330" height="180" as="geometry"/>
                </mxCell>
                <mxCell id="1010" value="$ программа = инструкция { инструкция }." style="text;whiteSpace=wrap;html=1;fontSize=5;fontStyle=2" vertex="1" parent="1009">
                    <mxGeometry x="110" y="159.98" width="110" height="20" as="geometry"/>
                </mxCell>
                <mxCell id="1027" value="&lt;font style=&quot;font-size: 30px;&quot;&gt;Ч&lt;/font&gt;&lt;span style=&quot;font-size: 30px; background-color: initial;&quot;&gt;исло&lt;/span&gt;" style="swimlane;whiteSpace=wrap;html=1;rounded=0;glass=0;strokeWidth=1;fontSize=12;fillColor=none;startSize=40;" vertex="1" parent="1">
                    <mxGeometry x="870" y="1250" width="390" height="180" as="geometry"/>
                </mxCell>
                <mxCell id="1028" value="$ число = &quot;0x&quot; цифра { цифра }." style="text;whiteSpace=wrap;html=1;fontSize=5;fontStyle=2" vertex="1" parent="1027">
                    <mxGeometry x="152.12" y="155" width="85.76" height="20" as="geometry"/>
                </mxCell>
                <mxCell id="1029" style="edgeStyle=orthogonalEdgeStyle;rounded=1;html=1;exitX=1;exitY=0.5;exitDx=0;exitDy=0;strokeWidth=1;fontSize=20;endArrow=none;endFill=0;" edge="1" parent="1027" source="1030">
                    <mxGeometry relative="1" as="geometry">
                        <mxPoint x="370.52" y="130" as="targetPoint"/>
                    </mxGeometry>
                </mxCell>
                <mxCell id="1030" value="цифра" style="rounded=0;whiteSpace=wrap;html=1;strokeWidth=1;fontSize=12;fillColor=none;glass=0;" vertex="1" parent="1027">
                    <mxGeometry x="126.75999999999976" y="120.01999999999998" width="49.76" height="20" as="geometry"/>
                </mxCell>
                <mxCell id="1031" value="цифра" style="rounded=0;whiteSpace=wrap;html=1;strokeWidth=1;fontSize=12;fillColor=none;glass=0;" vertex="1" parent="1027">
                    <mxGeometry x="206.76999999999907" y="80" width="49.76" height="20" as="geometry"/>
                </mxCell>
                <mxCell id="1032" style="edgeStyle=orthogonalEdgeStyle;rounded=1;html=1;fontSize=12;endArrow=none;endFill=0;exitX=0;exitY=0.5;exitDx=0;exitDy=0;" edge="1" parent="1027" source="1031">
                    <mxGeometry relative="1" as="geometry">
                        <mxPoint x="216.2800000000002" y="130.01999999999998" as="targetPoint"/>
                        <mxPoint x="201.5299999999993" y="90" as="sourcePoint"/>
                        <Array as="points">
                            <mxPoint x="191.2800000000002" y="90.01999999999998"/>
                            <mxPoint x="191.2800000000002" y="130.01999999999998"/>
                        </Array>
                    </mxGeometry>
                </mxCell>
                <mxCell id="1033" style="edgeStyle=orthogonalEdgeStyle;rounded=1;html=1;fontSize=12;endArrow=none;endFill=0;entryX=1;entryY=0.5;entryDx=0;entryDy=0;" edge="1" parent="1027" target="1031">
                    <mxGeometry relative="1" as="geometry">
                        <mxPoint x="296.7699999999991" y="90" as="targetPoint"/>
                        <mxPoint x="246.2800000000002" y="130.01999999999998" as="sourcePoint"/>
                        <Array as="points">
                            <mxPoint x="271.2800000000002" y="130.01999999999998"/>
                            <mxPoint x="271.2800000000002" y="90.01999999999998"/>
                        </Array>
                    </mxGeometry>
                </mxCell>
                <mxCell id="1034" style="edgeStyle=orthogonalEdgeStyle;rounded=1;html=1;exitX=1;exitY=0.5;exitDx=0;exitDy=0;strokeWidth=1;fontSize=20;endArrow=none;endFill=0;entryX=0;entryY=0.5;entryDx=0;entryDy=0;" edge="1" parent="1027" source="1036" target="1030">
                    <mxGeometry relative="1" as="geometry">
                        <mxPoint x="122" y="130" as="targetPoint"/>
                        <mxPoint x="82.00000000000001" y="129.8599999999999" as="sourcePoint"/>
                    </mxGeometry>
                </mxCell>
                <mxCell id="1035" style="edgeStyle=orthogonalEdgeStyle;rounded=1;html=1;strokeWidth=1;fontSize=20;endArrow=none;endFill=0;entryX=0;entryY=0.5;entryDx=0;entryDy=0;" edge="1" parent="1027" target="1036">
                    <mxGeometry relative="1" as="geometry">
                        <mxPoint x="31.999999999999773" y="130" as="targetPoint"/>
                        <mxPoint x="22" y="130" as="sourcePoint"/>
                    </mxGeometry>
                </mxCell>
                <mxCell id="1036" value="0x" style="ellipse;whiteSpace=wrap;html=1;aspect=fixed;fillStyle=auto;rounded=1;" vertex="1" parent="1027">
                    <mxGeometry x="72.00000000000023" y="115.01999999999978" width="30" height="30" as="geometry"/>
                </mxCell>
            </root>
        </mxGraphModel>
    </diagram>
</mxfile>